<svg xmlns="http://www.w3.org/2000/svg" width="141" height="149" viewBox="0 0 141 149" fill="none">
    <path d="M70.5 121.242C68.7571 121.242 67.0533 121.76 65.604 122.728C64.1548 123.697 63.0253 125.074 62.3583 126.686C61.6913 128.297 61.5168 130.07 61.8568 131.78C62.1969 133.491 63.0362 135.062 64.2686 136.295C65.5011 137.528 67.0713 138.368 68.7808 138.708C70.4902 139.049 72.2621 138.874 73.8724 138.206C75.4827 137.539 76.859 136.409 77.8273 134.959C78.7957 133.509 79.3125 131.804 79.3125 130.06C79.3125 127.721 78.384 125.479 76.7314 123.825C75.0787 122.171 72.8372 121.242 70.5 121.242ZM70.5 134.469C69.6285 134.469 68.7766 134.21 68.052 133.726C67.3274 133.241 66.7627 132.553 66.4292 131.747C66.0957 130.942 66.0084 130.055 66.1784 129.2C66.3484 128.345 66.7681 127.559 67.3843 126.943C68.0005 126.326 68.7857 125.906 69.6404 125.736C70.4951 125.566 71.3811 125.653 72.1862 125.987C72.9913 126.321 73.6795 126.886 74.1637 127.611C74.6478 128.336 74.9063 129.188 74.9063 130.06C74.9063 131.229 74.442 132.351 73.6157 133.178C72.7894 134.004 71.6686 134.469 70.5 134.469Z" fill="#006CB5"/>
    <path d="M123.375 52.9058H116.766V57.3146H123.375V52.9058Z" fill="#006CB5"/>
    <path d="M24.2344 52.9058H17.625V57.3146H24.2344V52.9058Z" fill="#006CB5"/>
    <path d="M72.7031 2.20447H68.2969V8.81769H72.7031V2.20447Z" fill="#006CB5"/>
    <path d="M104.762 86.2861L101.647 89.4036L106.32 94.0798L109.436 90.9623L104.762 86.2861Z" fill="#006CB5"/>
    <path d="M34.6803 16.1418L31.5646 19.2593L36.2381 23.9355L39.3538 20.818L34.6803 16.1418Z" fill="#006CB5"/>
    <path d="M106.342 16.1415L101.668 20.8177L104.784 23.9353L109.458 19.259L106.342 16.1415Z" fill="#006CB5"/>
    <path d="M36.2164 86.2863L31.5428 90.9625L34.6585 94.08L39.3321 89.4038L36.2164 86.2863Z" fill="#006CB5"/>
    <path d="M33.0469 57.3146H41.8594C42.4437 57.3146 43.0041 57.0823 43.4172 56.6689C43.8304 56.2555 44.0625 55.6948 44.0625 55.1102C44.0625 49.8783 45.613 44.7639 48.518 40.4137C51.423 36.0636 55.552 32.673 60.3828 30.6709C65.2136 28.6687 70.5293 28.1449 75.6577 29.1656C80.7861 30.1863 85.4968 32.7057 89.1941 36.4052C92.8915 40.1047 95.4094 44.8181 96.4295 49.9495C97.4496 55.0808 96.9261 60.3996 94.9251 65.2333C92.9241 70.0669 89.5355 74.1983 85.1879 77.105C80.8403 80.0116 75.7288 81.5631 70.5 81.5631C68.7471 81.5631 67.066 82.2598 65.8265 83.5001C64.587 84.7403 63.8906 86.4224 63.8906 88.1763V114.629C63.8906 115.214 64.1227 115.775 64.5359 116.188C64.9491 116.601 65.5094 116.834 66.0938 116.834H74.9062C75.4906 116.834 76.0509 116.601 76.4641 116.188C76.8773 115.775 77.1094 115.214 77.1094 114.629V94.2384C84.5642 92.9776 91.5034 89.6108 97.1093 84.5347C102.715 79.4586 106.754 72.8849 108.75 65.5883C110.745 58.2917 110.615 50.5762 108.374 43.3513C106.132 36.1264 101.874 29.6932 96.0995 24.8097C90.3253 19.9263 83.2762 16.7962 75.783 15.7884C68.2899 14.7806 60.6649 15.9371 53.8069 19.1215C46.9488 22.3059 41.1434 27.3856 37.075 33.7619C33.0065 40.1381 30.8445 47.5452 30.8438 55.1102C30.8438 55.6948 31.0759 56.2555 31.489 56.6689C31.9022 57.0823 32.4626 57.3146 33.0469 57.3146ZM70.5 19.8397C79.4925 19.8357 88.1464 23.2706 94.6909 29.4414C101.235 35.6123 105.175 44.0524 105.704 53.0345C106.234 62.0166 103.312 70.8615 97.5377 77.759C91.7632 84.6564 83.5725 89.085 74.6419 90.1382C74.1045 90.2032 73.6099 90.4638 73.2523 90.8704C72.8947 91.277 72.6992 91.8011 72.7031 92.3426V112.425H68.2969V88.1763C68.2969 87.5917 68.529 87.031 68.9422 86.6175C69.3553 86.2041 69.9157 85.9719 70.5 85.9719C76.5031 85.9566 82.3712 84.1887 87.3848 80.8852C92.3985 77.5816 96.3397 72.886 98.7252 67.374C101.111 61.862 101.837 55.7733 100.814 49.8545C99.7921 43.9356 97.0657 38.4439 92.9697 34.0528C88.8737 29.6616 83.586 26.5619 77.7551 25.1337C71.9242 23.7055 65.8034 24.0108 60.1434 26.0124C54.4834 28.0139 49.5301 31.6246 45.891 36.4016C42.2519 41.1787 40.0851 46.9145 39.6562 52.9058H35.25C35.8112 43.9387 39.7713 35.5239 46.3222 29.379C52.873 23.234 61.5206 19.8221 70.5 19.8397Z" fill="#006CB5"/>
    <path d="M45.2522 79.7114C44.2985 78.7346 43.4011 77.7042 42.5644 76.6252L39.0835 79.3587C40.0163 80.5749 41.0166 81.7377 42.0797 82.8417L45.2522 79.7114Z" fill="#006CB5"/>
    <path d="M49.2178 88.6173L51.5972 84.8918C50.4478 84.1486 49.3374 83.3466 48.2704 82.489L45.4945 85.972C46.6858 86.9219 47.9288 87.8051 49.2178 88.6173Z" fill="#006CB5"/>
    <path d="M31.5487 62.6493C31.8542 64.1378 32.2366 65.6094 32.6943 67.0582L36.8803 65.7355C36.4749 64.4327 36.1439 63.108 35.8889 61.7676L31.5487 62.6493Z" fill="#006CB5"/>
    <path d="M57.5236 92.5851L58.9556 88.4188C57.6338 87.9815 56.339 87.4663 55.0781 86.8757L53.1614 90.8657C54.5784 91.5287 56.0353 92.103 57.5236 92.5851Z" fill="#006CB5"/>
    <path d="M40.2511 73.2305C39.5545 72.0606 38.922 70.8537 38.3564 69.6152L34.3467 71.4229C34.9924 72.8283 35.7284 74.1905 36.5498 75.501L40.2511 73.2305Z" fill="#006CB5"/>
</svg>
