<svg xmlns="http://www.w3.org/2000/svg" width="154" height="156" viewBox="0 0 154 156" fill="none">
    <g clip-path="url(#clip0_32_275)">
        <path d="M85.7937 61.3552C85.395 60.955 85.3968 60.3079 85.7977 59.9098C86.1986 59.5118 86.8468 59.5136 87.2454 59.9138C88.1205 60.7926 88.8209 61.6014 89.3171 62.3992C90.1794 63.6675 90.8523 64.7748 91.3591 65.7947C91.4735 65.8024 91.5884 65.8294 91.6995 65.8778L106.959 72.5494C108.779 73.3451 110.174 74.8277 111.208 76.5874C112.457 78.7138 113.183 81.2539 113.493 83.4301C113.496 83.4531 113.498 83.4759 113.5 83.4987L116.116 103.546C116.421 105.885 116.451 107.156 116.042 108.103L121.53 112.388C122.256 110.784 123.395 109.207 124.739 107.772C127.639 104.676 131.553 102.181 134.252 101.554L134.252 101.556C134.268 101.553 134.284 101.549 134.3 101.546L142.402 100.037C143.684 99.7987 144.666 100.144 145.282 100.75C145.598 101.06 145.814 101.437 145.926 101.845C146.036 102.247 146.042 102.673 145.941 103.088C145.734 103.93 145.093 104.724 143.984 105.13L137.679 107.441C137.304 107.579 137.081 107.722 136.977 107.864C136.948 107.905 136.932 107.949 136.928 107.994C136.922 108.067 136.938 108.153 136.973 108.246C137.067 108.503 137.259 108.769 137.506 109.015C137.86 108.743 138.25 108.573 138.643 108.495C139.05 108.414 139.459 108.433 139.839 108.542C140.224 108.652 140.579 108.854 140.874 109.137C141.176 109.427 141.412 109.797 141.543 110.232C143.979 110.403 147.152 110.409 149.319 110.413L149.372 110.413C152.367 110.418 152.445 111.435 152.447 113.944C153.007 114.136 153.429 114.514 153.709 114.989C153.919 115.342 154.04 115.744 154.075 116.154C154.108 116.548 154.061 116.958 153.934 117.343C153.644 118.222 152.95 118.98 151.853 119.195L151.853 119.194C151.808 119.202 151.763 119.208 151.717 119.211C151.458 119.227 150.898 119.262 150.334 119.297L149.685 119.338C148.325 119.434 147.11 119.943 146.128 120.354C145.779 120.5 145.457 120.635 145.112 120.757C141.43 122.055 137.838 122.934 134.775 123.458C131.459 124.026 128.714 124.177 127.101 123.997C124.28 127.624 122.056 129.254 119.277 129.559C116.472 129.866 113.33 128.753 108.481 126.965C105.341 125.808 103.423 124.805 102.18 122.94C102.027 122.712 101.887 122.472 101.758 122.22L101.02 131.381C100.976 131.945 100.482 132.366 99.9176 132.322C99.3528 132.278 98.9309 131.785 98.9752 131.221L100.37 113.899L100.373 113.899C100.376 113.858 100.382 113.816 100.39 113.775L105.399 89.5023C105.512 88.9495 106.052 88.5927 106.606 88.7055C107.159 88.8183 107.517 89.3579 107.404 89.9107L102.894 111.765C102.234 114.967 102.013 119 103.888 121.811C104.823 123.212 106.458 124.038 109.186 125.043C113.762 126.73 116.717 127.781 119.061 127.525C121.095 127.302 122.847 126.028 125.108 123.216C123.768 122.459 122.802 121.766 122.098 120.874C121.187 119.718 120.785 118.339 120.69 116.23C120.664 115.642 120.719 115.045 120.844 114.444L120.833 114.436L114.73 109.672C114.323 110.004 113.83 110.358 113.24 110.782C112.798 111.1 112.29 111.465 111.647 111.955C111.198 112.298 110.555 112.212 110.211 111.763C109.868 111.314 109.954 110.672 110.404 110.329C110.989 109.883 111.554 109.477 112.045 109.125C114.183 107.589 114.546 107.328 114.087 103.81L111.471 83.7624C111.468 83.7478 111.465 83.7332 111.463 83.7184C111.185 81.759 110.541 79.4894 109.443 77.6204C108.612 76.2053 107.522 75.0271 106.141 74.4233L92.3392 68.389C93.0979 71.4936 92.1953 74.3523 90.4865 79.7631C90.3278 80.2655 90.1618 80.7909 89.9894 81.3417C89.8211 81.8812 89.2465 82.1824 88.7061 82.0143C88.3257 81.896 88.0636 81.5768 88.0004 81.2099C87.5491 78.8836 87.2525 77.3993 86.7113 76.8063C86.3118 76.3686 85.4847 76.4296 83.8376 76.9613C83.7974 76.9773 83.7559 76.9908 83.7134 77.0017C78.7031 78.6842 78.3286 86.9111 78.0334 93.4114C78.0107 93.9121 77.9882 94.4047 77.9678 94.8171L77.9678 94.8173C77.9637 94.9043 77.9487 94.9887 77.924 95.069L77.9234 95.0712C77.9215 95.0775 77.9194 95.0837 77.9174 95.0899L77.9154 95.0959L77.911 95.1086L77.9064 95.1214L77.9045 95.1265L77.8976 95.1444L77.8956 95.1494C77.8466 95.2714 77.7749 95.3815 77.6858 95.4746L77.6855 95.4749C77.6803 95.4804 77.6751 95.4858 77.6698 95.4911L77.6684 95.4925C77.663 95.4978 77.6576 95.503 77.6522 95.5082L77.6519 95.5085C77.6461 95.514 77.6403 95.5194 77.6344 95.5248L77.6342 95.5249C77.5448 95.6063 77.4407 95.6721 77.3261 95.718L77.3212 95.7199C77.3152 95.7223 77.3092 95.7246 77.3032 95.7268L77.2981 95.7287L77.2853 95.7333L77.2725 95.7377L77.2665 95.7397L77.2478 95.7457L77.2456 95.7463C77.1652 95.771 77.0807 95.7859 76.9935 95.79L76.9932 95.79L76.9926 95.79C76.9846 95.7904 76.9766 95.7907 76.9686 95.7909L76.9626 95.791L76.9451 95.7911L76.9277 95.791L76.9217 95.7909C76.9136 95.7907 76.9056 95.7904 76.8976 95.79L76.897 95.79L76.8967 95.79C76.8096 95.786 76.7251 95.771 76.6446 95.7463L76.6424 95.7457C76.6361 95.7438 76.6299 95.7417 76.6237 95.7397L76.6177 95.7377L76.605 95.7333L76.5922 95.7287L76.5871 95.7268L76.5691 95.7199L76.5642 95.718C76.4496 95.6721 76.3455 95.6063 76.256 95.5249L76.2559 95.5248C76.25 95.5195 76.2441 95.514 76.2384 95.5085L76.2381 95.5082C76.2326 95.503 76.2272 95.4978 76.2219 95.4925L76.2205 95.4911C76.2152 95.4858 76.2099 95.4804 76.2047 95.4749L76.2044 95.4746C76.1989 95.4688 76.1935 95.463 76.1881 95.4571L76.188 95.457C76.1065 95.3677 76.0406 95.2638 75.9946 95.1494L75.9926 95.1444C75.9903 95.1385 75.988 95.1325 75.9858 95.1265L75.9839 95.1214L75.9793 95.1086L75.9748 95.0959L75.9729 95.0899L75.9668 95.0712L75.9662 95.069C75.9415 94.9887 75.9265 94.9043 75.9225 94.8173L75.9225 94.8171C75.902 94.4047 75.8796 93.9121 75.8569 93.4114C75.5616 86.9111 75.1872 78.6842 70.1768 77.0017C70.1343 76.9908 70.0929 76.9773 70.0527 76.9613C68.4056 76.4296 67.5785 76.3686 67.179 76.8063C66.6377 77.3993 66.3411 78.8836 65.8898 81.2099C65.8266 81.5768 65.5646 81.896 65.1842 82.0143C64.6438 82.1824 64.0692 81.8812 63.9008 81.3417C63.7284 80.7909 63.5624 80.2655 63.4038 79.7632C61.6949 74.3524 60.7923 71.4937 61.551 68.389L47.7491 74.4233C46.3681 75.0271 45.2787 76.2053 44.4471 77.6204C43.3489 79.4894 42.7056 81.759 42.4268 83.7184C42.4247 83.7332 42.4222 83.7478 42.4195 83.7624L39.8036 103.81C39.3444 107.328 39.7074 107.589 41.8453 109.125C42.3361 109.477 42.9011 109.883 43.4863 110.329C43.9359 110.672 44.0221 111.314 43.6788 111.763C43.3355 112.212 42.6926 112.298 42.243 111.955C41.6002 111.465 41.0918 111.1 40.6502 110.782C40.2874 110.522 39.9616 110.288 39.6696 110.069L32.6945 113.212C33.0582 114.225 33.2442 115.24 33.1999 116.23C33.1055 118.339 32.7035 119.718 31.7919 120.874C31.0879 121.766 30.1221 122.459 28.7825 123.216C31.0428 126.028 32.7951 127.302 34.8295 127.525C37.1733 127.781 40.1284 126.73 44.7039 125.043C47.4323 124.038 49.0676 123.212 50.0022 121.811C52.3127 118.346 51.4604 114.085 50.6924 110.352L46.4864 89.9107C46.3735 89.3579 46.7308 88.8183 47.2845 88.7055C47.8382 88.5927 48.3787 88.9495 48.4917 89.5023L53.5091 113.887C53.5176 113.929 53.5233 113.97 53.5266 114.012L53.5291 114.012L54.9597 131.775C55.004 132.339 54.582 132.832 54.0172 132.876C53.4524 132.92 52.9586 132.499 52.9144 131.935L52.132 122.22C52.003 122.472 51.8629 122.712 51.7107 122.94C50.4669 124.805 48.5495 125.808 45.4097 126.965C40.5605 128.753 37.4178 129.866 34.6129 129.559C31.7887 129.249 29.5375 127.57 26.6491 123.816C25.9912 123.681 25.1114 123.515 24.0537 123.315C19.6767 122.49 12.3715 121.111 7.52179 119.532C6.19968 119.463 4.88351 119.38 3.55591 119.297C2.99275 119.262 2.43248 119.227 2.17358 119.211C2.12722 119.208 2.08182 119.202 2.03744 119.194L2.03723 119.195C0.940446 118.98 0.245932 118.222 -0.0440241 117.343C-0.171048 116.958 -0.218121 116.548 -0.184857 116.154C-0.150233 115.744 -0.0285214 115.342 0.180765 114.989C0.461661 114.514 0.88303 114.136 1.44359 113.944C1.44482 111.435 1.52298 110.418 4.5181 110.413L4.56959 110.413C6.84576 110.409 10.2319 110.403 12.7079 110.205C12.8487 109.97 13.025 109.761 13.2279 109.581C13.54 109.305 13.912 109.105 14.3109 108.992C14.7018 108.883 15.1243 108.856 15.5459 108.923C15.7882 108.961 16.0289 109.03 16.2614 109.13C16.5679 108.851 16.8085 108.542 16.9175 108.246C16.9539 108.147 16.9717 108.061 16.9658 107.994C16.9621 107.953 16.9448 107.91 16.911 107.864C16.8046 107.721 16.5821 107.577 16.2108 107.441L9.90633 105.13C8.79742 104.724 8.1563 103.93 7.94958 103.088C7.84789 102.673 7.85446 102.247 7.96469 101.845C8.07665 101.437 8.29269 101.06 8.60793 100.75C9.22403 100.144 10.2059 99.7987 11.4882 100.037L19.5903 101.546C19.6064 101.549 19.6222 101.553 19.638 101.556L19.6384 101.554C22.3369 102.181 26.2511 104.676 29.1509 107.772C30.205 108.897 31.133 110.11 31.8343 111.354L38.0814 108.539C37.4365 107.538 37.4198 106.262 37.7743 103.546L40.3902 83.4987C40.3919 83.4759 40.3943 83.4531 40.3976 83.4301C40.7072 81.2539 41.4331 78.7138 42.6826 76.5874C43.7166 74.8277 45.111 73.3451 46.931 72.5494L62.1907 65.8778C62.3018 65.8294 62.4168 65.8024 62.5311 65.7947C63.0379 64.7749 63.7107 63.6677 64.5728 62.3996C65.0691 61.6017 65.7695 60.7927 66.6448 59.9138C67.0435 59.5136 67.6917 59.5118 68.0925 59.9098C68.4934 60.3079 68.4952 60.955 68.0965 61.3552C67.5144 61.9398 67.03 62.4736 66.6566 62.9773C66.5595 63.1166 66.4651 63.2535 66.3728 63.3886C65.9148 64.1083 65.7058 64.7749 65.789 65.454C65.9602 66.8525 67.2441 68.5367 69.9459 71.0313C70.6953 71.7234 71.0786 72.5453 71.2717 73.4541C71.3997 74.0568 71.4404 74.6724 71.453 75.3046C74.6042 76.6749 76.1447 79.8956 76.9451 83.6598C77.7455 79.8956 79.286 76.6749 82.4372 75.3046C82.4498 74.6724 82.4905 74.0568 82.6185 73.4541C82.8116 72.5453 83.1949 71.7234 83.9444 71.0313C86.6461 68.5367 87.93 66.8525 88.1012 65.454C88.1844 64.7747 87.9753 64.1079 87.5171 63.388C87.425 63.2533 87.3308 63.1168 87.234 62.9779C86.8606 62.4741 86.3761 61.9401 85.7937 61.3552ZM53.9728 63.3519C54.3217 63.4072 54.5596 63.7343 54.5042 64.0826C54.4489 64.4308 54.1212 64.6684 53.7723 64.6131L42.5646 62.8069C42.2157 62.7516 41.9778 62.4245 42.0332 62.0762C42.0886 61.7279 42.4162 61.4904 42.7651 61.5457L53.9728 63.3519ZM37.7354 60.6405C38.0843 60.6972 38.321 61.0255 38.2643 61.3737C38.2076 61.722 37.8787 61.9584 37.5299 61.9017L33.3308 61.2073C32.9819 61.1507 32.7451 60.8224 32.8019 60.4741C32.8586 60.1259 33.1875 59.8895 33.5363 59.9461L37.7354 60.6405ZM61.3784 59.7139C61.7023 59.8549 61.8504 60.2313 61.7092 60.5547C61.568 60.8781 61.1909 61.026 60.867 60.8851L50.509 56.3722C50.1851 56.2312 50.037 55.8547 50.1782 55.5313C50.3193 55.208 50.6964 55.06 51.0204 55.201L61.3784 59.7139ZM43.104 51.752C43.4279 51.8929 43.5761 52.2694 43.4349 52.5928C43.2937 52.9162 42.9166 53.0641 42.5927 52.9231L36.0613 50.0775C35.7374 49.9365 35.5892 49.56 35.7304 49.2366C35.8716 48.9133 36.2487 48.7654 36.5726 48.9063L43.104 51.752ZM58.6086 51.8143C58.8909 52.0271 58.947 52.4282 58.7339 52.7101C58.5207 52.9921 58.1189 53.0481 57.8365 52.8353L48.6575 45.9083C48.3751 45.6955 48.319 45.2944 48.5321 45.0125C48.7453 44.7306 49.1471 44.6745 49.4295 44.8874L58.6086 51.8143ZM45.352 41.696C45.633 41.9102 45.6869 42.3113 45.4723 42.5918C45.2578 42.8724 44.856 42.9261 44.575 42.7119L41.1437 40.1009C40.8627 39.8867 40.8089 39.4856 41.0234 39.205C41.238 38.9245 41.6398 38.8707 41.9207 39.0849L45.352 41.696ZM67.2574 51.6893C67.4706 51.9698 67.4156 52.3698 67.1346 52.5826C66.8536 52.7954 66.453 52.7405 66.2398 52.46L59.2774 43.2971C59.0642 43.0166 59.1192 42.6166 59.4002 42.4038C59.6812 42.1909 60.0819 42.2458 60.295 42.5264L67.2574 51.6893ZM54.9738 35.5235C55.187 35.804 55.132 36.204 54.851 36.4168C54.57 36.6296 54.1694 36.5747 53.9562 36.2942L49.566 30.5164C49.3528 30.2359 49.4078 29.8359 49.6888 29.6231C49.9698 29.4102 50.3704 29.4651 50.5836 29.7457L54.9738 35.5235ZM101.868 64.6131C101.519 64.6684 101.191 64.4308 101.136 64.0826C101.081 63.7343 101.319 63.4072 101.667 63.3519L112.875 61.5457C113.224 61.4904 113.552 61.728 113.607 62.0762C113.662 62.4245 113.424 62.7516 113.076 62.8069L101.868 64.6131ZM118.11 61.9017C117.761 61.9584 117.433 61.722 117.376 61.3737C117.319 61.0255 117.556 60.6972 117.905 60.6405L122.104 59.9461C122.453 59.8895 122.782 60.1259 122.838 60.4741C122.895 60.8224 122.658 61.1507 122.309 61.2073L118.11 61.9017ZM94.7732 60.8851C94.4493 61.026 94.0722 60.8781 93.931 60.5547C93.7898 60.2313 93.938 59.8549 94.2619 59.7139L104.62 55.201C104.944 55.06 105.321 55.208 105.462 55.5313C105.603 55.8547 105.455 56.2312 105.131 56.3722L94.7732 60.8851ZM113.048 52.9231C112.724 53.0641 112.347 52.9162 112.205 52.5928C112.064 52.2694 112.212 51.8929 112.536 51.752L119.068 48.9063C119.392 48.7654 119.769 48.9133 119.91 49.2366C120.051 49.56 119.903 49.9365 119.579 50.0775L113.048 52.9231ZM97.8037 52.8353C97.5213 53.0481 97.1195 52.9921 96.9063 52.7101C96.6932 52.4282 96.7493 52.0271 97.0317 51.8143L106.211 44.8873C106.493 44.6745 106.895 44.7305 107.108 45.0125C107.321 45.2944 107.265 45.6955 106.983 45.9083L97.8037 52.8353ZM111.065 42.7119C110.784 42.9261 110.382 42.8724 110.168 42.5918C109.953 42.3113 110.007 41.9102 110.288 41.696L113.719 39.0849C114 38.8707 114.402 38.9245 114.617 39.205C114.831 39.4856 114.778 39.8867 114.497 40.1009L111.065 42.7119ZM89.4004 52.46C89.1872 52.7405 88.7866 52.7954 88.5056 52.5826C88.2246 52.3698 88.1696 51.9698 88.3828 51.6893L95.3452 42.5264C95.5583 42.2458 95.959 42.1909 96.24 42.4038C96.521 42.6166 96.576 43.0166 96.3628 43.2971L89.4004 52.46ZM101.684 36.2942C101.471 36.5747 101.07 36.6296 100.789 36.4168C100.508 36.204 100.453 35.804 100.666 35.5235L105.057 29.7457C105.27 29.4651 105.67 29.4102 105.951 29.6231C106.232 29.8359 106.287 30.2359 106.074 30.5164L101.684 36.2942ZM64.614 35.221L71.117 35.7767C71.3366 34.5483 71.9144 33.4473 72.7343 32.5948C73.8035 31.483 75.2818 30.7953 76.9158 30.7953C78.5497 30.7953 80.028 31.483 81.0973 32.5948C82.1569 33.6967 82.8124 35.2136 82.8124 36.8842C82.8124 37.8658 82.5826 38.7995 82.1751 39.6303C81.7514 40.4941 81.1377 41.2379 80.3924 41.8009L80.3641 41.8222C79.5985 42.3982 73.226 47.1945 74.0999 57.7744L78.9882 57.9882C79.7824 50.3698 82.3483 48.4478 84.318 46.9734C84.4611 46.8663 84.0083 47.2054 84.5423 46.802C86.1526 45.5857 87.475 43.9858 88.3839 42.1326C89.26 40.3463 89.7542 38.3164 89.7542 36.1587C89.7542 32.5222 88.3408 29.2343 86.0558 26.8583C83.7804 24.4922 80.638 23.0287 77.1682 23.0287C73.6983 23.0287 70.5559 24.4922 68.2805 26.8583C66.1937 29.0283 64.8341 31.9589 64.614 35.221ZM71.9241 37.902L63.5019 37.1823C62.9598 37.1545 62.5289 36.7068 62.5289 36.1587C62.5289 31.9777 64.1629 28.188 66.8047 25.441C69.456 22.684 73.12 20.9788 77.1682 20.9788C81.2163 20.9788 84.8803 22.684 87.5317 25.441C90.1735 28.188 91.8075 31.9777 91.8075 36.1587C91.8075 38.6253 91.2353 40.9609 90.2206 43.0295C89.1665 45.1786 87.6371 47.031 85.7775 48.4356C85.3935 48.7257 85.8426 48.3843 85.5451 48.607C83.8153 49.9019 81.5395 51.6054 80.9431 59.132C80.8988 59.6959 80.405 60.1171 79.8402 60.0729C79.8299 60.0721 79.8197 60.0711 79.8094 60.07L73.1807 59.78C72.66 59.7878 72.2082 59.4 72.1479 58.8726C70.7046 46.5267 78.2442 40.8542 79.1288 40.1887L79.1572 40.1673C79.6532 39.7927 80.0599 39.3013 80.3384 38.7334C80.6074 38.185 80.7591 37.5569 80.7591 36.8842C80.7591 35.7582 80.3243 34.743 79.6214 34.0121C78.9281 33.2912 77.9714 32.8452 76.9158 32.8452C75.8601 32.8452 74.9034 33.2912 74.2101 34.0121C73.5072 34.743 73.0725 35.7582 73.0725 36.8842C73.0725 37.4503 72.6128 37.9092 72.0458 37.9092C72.0046 37.9092 71.964 37.9067 71.9241 37.902ZM72.9996 62.9696H79.7734C80.3404 62.9696 80.8001 63.4285 80.8001 63.9945V71.0382C80.8001 71.6043 80.3404 72.0632 79.7734 72.0632H72.9996C72.4326 72.0632 71.973 71.6043 71.973 71.0382V63.9945C71.973 63.4285 72.4326 62.9696 72.9996 62.9696ZM78.7467 65.0195H74.0263V70.0132H78.7467V65.0195ZM27.0821 121.815C28.5692 121.02 29.5686 120.383 30.1797 119.608C30.8024 118.819 31.0809 117.787 31.1546 116.142C31.254 113.92 29.7405 111.387 27.659 109.165C25.0211 106.349 21.5321 104.096 19.1732 103.548L19.1734 103.547L11.1192 102.047C10.5761 101.946 10.2213 102.032 10.0437 102.207C9.99044 102.259 9.95491 102.32 9.93785 102.382C9.91911 102.45 9.91916 102.527 9.93874 102.607C9.994 102.832 10.2115 103.061 10.6122 103.208L16.9166 105.519C17.6872 105.802 18.2178 106.192 18.5552 106.647C18.8245 107.01 18.9663 107.405 19.0031 107.817C19.0375 108.203 18.9772 108.584 18.8425 108.951C18.6352 109.515 18.2405 110.061 17.7541 110.532C17.8562 110.72 17.9467 110.925 18.0233 111.148L18.0214 111.148C18.0263 111.163 18.031 111.177 18.0353 111.192L18.5163 112.813C18.5812 112.737 18.65 112.665 18.7223 112.599C19.0959 112.254 19.5474 112.049 20.0247 111.978C20.4715 111.912 20.9455 111.965 21.3977 112.133C22.1439 112.41 22.8294 113.006 23.2077 113.892C23.3592 114.246 23.4738 114.832 23.5638 115.493C23.6426 116.072 23.7089 116.755 23.7649 117.366C23.83 118.078 24.5779 118.197 25.5543 118.352C26.1026 118.439 26.6974 118.534 27.3142 118.708C27.8591 118.86 28.1769 119.425 28.0241 119.969C27.8713 120.513 27.3057 120.83 26.7608 120.678C26.2339 120.529 25.7133 120.446 25.2335 120.37C23.3671 120.073 21.9375 119.846 21.7276 117.551C21.6757 116.983 21.6133 116.344 21.5345 115.766C21.4669 115.269 21.3948 114.861 21.3228 114.692C21.1807 114.36 20.9398 114.142 20.6838 114.047C20.562 114.002 20.4369 113.987 20.3215 114.004C20.2367 114.017 20.1628 114.047 20.1099 114.096C19.9994 114.198 19.9244 114.394 19.9174 114.701L19.8547 117.444C19.8688 117.897 19.5765 118.322 19.1196 118.456C18.5769 118.615 18.0078 118.305 17.8483 117.763L16.0832 111.812L16.0822 111.812C15.8931 111.262 15.5561 110.993 15.2251 110.94C15.1042 110.921 14.9808 110.93 14.8644 110.962C14.756 110.993 14.6593 111.043 14.5834 111.111C14.4212 111.254 14.342 111.514 14.4368 111.87L14.4418 111.89L15.6799 115.967C15.6881 115.994 15.695 116.021 15.7009 116.048C15.7796 116.381 15.813 116.687 15.8093 116.966C15.798 117.829 15.4559 118.44 14.9789 118.872C14.8035 119.03 14.6128 119.159 14.4171 119.264C18.0184 120.095 21.7723 120.804 24.4307 121.306C25.5368 121.514 26.4604 121.688 27.0821 121.815ZM7.70744 117.494C7.74909 117.493 7.79103 117.496 7.83308 117.5C9.40978 117.582 10.9768 117.645 12.5418 117.665C12.6224 117.666 12.8338 117.659 13.0827 117.599C13.2719 117.554 13.4733 117.479 13.6073 117.358C13.6968 117.277 13.7613 117.147 13.764 116.942C13.7655 116.825 13.7501 116.689 13.7142 116.531L12.485 112.483C12.4738 112.453 12.464 112.422 12.4556 112.39C12.4451 112.351 12.4354 112.312 12.4265 112.273C9.92653 112.445 6.7474 112.451 4.56959 112.455L4.5181 112.455C3.58399 112.457 3.49736 112.857 3.48963 113.832L11.3606 114.016C11.9254 114.027 12.3743 114.493 12.3632 115.057C12.3522 115.62 11.8853 116.069 11.3205 116.058L2.34885 115.849C2.14267 115.844 2.01034 115.92 1.94535 116.03C1.89822 116.109 1.86986 116.21 1.86047 116.322C1.84977 116.449 1.86468 116.58 1.90505 116.702C1.97694 116.92 2.13767 117.109 2.38497 117.174C2.99627 117.212 3.34287 117.234 3.68424 117.255C5.03554 117.34 6.375 117.424 7.70744 117.494ZM51.1321 92.0325C51.0712 91.6842 51.3046 91.3526 51.6535 91.2918C52.0023 91.231 52.3345 91.464 52.3954 91.8123L53.3977 97.4529C53.4586 97.8011 53.2252 98.1328 52.8764 98.1936C52.5275 98.2544 52.1953 98.0214 52.1344 97.6731L51.1321 92.0325ZM69.3701 74.6509C69.3497 74.3774 69.3174 74.1181 69.2665 73.8785C69.1544 73.3509 68.9477 72.8883 68.5583 72.5288C66.2541 70.4013 64.8435 68.7175 64.1781 67.2018C62.8732 70.2765 63.3416 72.6392 64.732 77.1484C64.9755 76.4305 65.2658 75.8641 65.6631 75.4289C66.5184 74.4918 67.6239 74.2642 69.3701 74.6509ZM141.757 119.701C141.629 119.703 141.501 119.705 141.372 119.707C141.212 119.709 140.797 119.697 140.334 119.585C139.869 119.474 139.344 119.263 138.911 118.872C138.434 118.44 138.092 117.829 138.081 116.966C138.077 116.698 138.108 116.407 138.18 116.09C138.186 116.052 138.195 116.014 138.206 115.975L139.559 111.4C139.66 111.016 139.597 110.748 139.455 110.611C139.407 110.565 139.346 110.531 139.278 110.512C139.206 110.491 139.127 110.488 139.044 110.505C138.766 110.56 138.471 110.833 138.28 111.389L138.278 111.388L136.026 117.811C135.84 118.344 135.256 118.625 134.723 118.44C134.294 118.29 134.028 117.885 134.036 117.456L133.973 114.701C133.966 114.394 133.891 114.198 133.78 114.096C133.727 114.047 133.654 114.017 133.569 114.004C133.453 113.987 133.328 114.002 133.206 114.047C132.95 114.142 132.71 114.36 132.567 114.692C132.495 114.861 132.423 115.269 132.356 115.766C132.277 116.344 132.215 116.983 132.163 117.551C131.953 119.846 130.523 120.073 128.657 120.37C128.177 120.446 127.656 120.529 127.129 120.678C126.585 120.83 126.019 120.513 125.866 119.969C125.713 119.425 126.031 118.86 126.576 118.708C127.193 118.534 127.788 118.439 128.336 118.352C129.312 118.197 130.06 118.078 130.125 117.366C130.181 116.755 130.248 116.072 130.326 115.493C130.416 114.832 130.531 114.246 130.683 113.892C131.061 113.006 131.746 112.41 132.493 112.133C132.945 111.965 133.419 111.912 133.865 111.978C134.343 112.049 134.794 112.254 135.168 112.599C135.304 112.724 135.427 112.866 135.535 113.025L136.341 110.725L136.339 110.725L136.341 110.719C135.761 110.208 135.283 109.59 135.048 108.951C134.912 108.582 134.85 108.203 134.883 107.826C134.918 107.421 135.058 107.029 135.325 106.663C135.664 106.2 136.197 105.804 136.974 105.519L143.278 103.208C143.679 103.061 143.896 102.832 143.951 102.607C143.971 102.527 143.971 102.45 143.952 102.382C143.935 102.32 143.9 102.259 143.847 102.207C143.669 102.032 143.314 101.946 142.771 102.047L134.717 103.547L134.717 103.548C132.358 104.096 128.869 106.349 126.231 109.165C124.15 111.387 122.636 113.92 122.736 116.142C122.809 117.787 123.088 118.819 123.711 119.608C124.349 120.417 125.411 121.077 127.009 121.922C128.279 122.159 130.976 122.032 134.43 121.44C136.645 121.061 139.147 120.49 141.757 119.701ZM150.401 113.832C150.393 112.857 150.306 112.457 149.372 112.455L149.319 112.455C147.134 112.451 143.941 112.445 141.437 112.271L140.172 116.551C140.139 116.7 140.125 116.83 140.126 116.942C140.129 117.147 140.193 117.277 140.283 117.358C140.417 117.479 140.618 117.554 140.808 117.599C141.056 117.659 141.268 117.666 141.348 117.665C144.277 117.627 147.213 117.443 150.206 117.255C150.547 117.234 150.894 117.212 151.505 117.174C151.753 117.109 151.913 116.92 151.985 116.702C152.026 116.58 152.04 116.449 152.03 116.322C152.02 116.21 151.992 116.109 151.945 116.03C151.88 115.92 151.748 115.844 151.541 115.849L142.57 116.058C142.005 116.069 141.538 115.62 141.527 115.057C141.516 114.493 141.965 114.027 142.53 114.016L150.401 113.832ZM101.267 91.749C101.315 91.3994 101.638 91.1552 101.989 91.2035C102.339 91.2519 102.584 91.5746 102.535 91.9242L101.743 97.6008C101.694 97.9505 101.371 98.1947 101.021 98.1464C100.671 98.098 100.426 97.7753 100.475 97.4257L101.267 91.749ZM89.7121 67.2018C89.0467 68.7174 87.6361 70.4013 85.3319 72.5288C84.9425 72.8883 84.7358 73.3509 84.6238 73.8785C84.5729 74.1181 84.5406 74.3774 84.5201 74.6509C86.2664 74.2642 87.3718 74.4918 88.2272 75.4289C88.6244 75.8641 88.9147 76.4305 89.1582 77.1484C90.5487 72.6392 91.0171 70.2765 89.7121 67.2018Z" fill="#006CB5"/>
    </g>
    <defs>
        <clipPath id="clip0_32_275">
            <rect width="154" height="156" fill="white"/>
        </clipPath>
    </defs>
</svg>
