<svg xmlns="http://www.w3.org/2000/svg" width="124" height="134" viewBox="0 0 124 134" fill="none">
    <path d="M39.25 22.0062L38.75 22.5075M39.25 22.0062L38.75 22.5075M39.25 22.0062V22.5075H38.75M39.25 22.0062L38.75 22.5075M35.375 23.3118V22.8118H34.875H5.8125C5.02039 22.8118 4.375 22.1666 4.375 21.3691V5.82791C4.375 5.03045 5.02039 4.38525 5.8125 4.38525H48.4375C49.2296 4.38525 49.875 5.03045 49.875 5.82791V21.3691C49.875 22.1666 49.2296 22.8118 48.4375 22.8118H43.4271H43.2196L43.0731 22.9587L37.8283 28.2175C37.5536 28.4929 37.1857 28.6398 36.8125 28.6398C36.6277 28.6398 36.4409 28.604 36.2618 28.5302C35.7262 28.3066 35.375 27.78 35.375 27.1971V23.3118ZM7.75 7.27056H7.25V7.77056V19.4265V19.9265H7.75H36.8125C37.6046 19.9265 38.25 20.5717 38.25 21.3691V22.5075V23.7169L39.104 22.8606L41.6092 20.3488L41.6101 20.3478C41.8778 20.078 42.2438 19.9265 42.625 19.9265H46.5H47V19.4265V7.77056V7.27056H46.5H7.75Z" fill="#006CB5" stroke="#006CB5"/>
    <path d="M88.6769 19.0734L88.5304 18.9265H88.3229H79.4375C78.6454 18.9265 78 18.2813 78 17.4838V5.82791C78 5.03045 78.6454 4.38525 79.4375 4.38525H106.562C107.355 4.38525 108 5.03045 108 5.82791V17.4838C108 18.2813 107.355 18.9265 106.562 18.9265H96.875H96.375V19.4265V23.3118C96.375 23.8947 96.0238 24.4213 95.4882 24.6449C95.3091 24.7186 95.1222 24.7545 94.9375 24.7545C94.5643 24.7545 94.1964 24.6075 93.9217 24.3322L88.6769 19.0734ZM81.375 7.27056H80.875V7.77056V15.5412V16.0412H81.375H89.125C89.5062 16.0412 89.8722 16.1927 90.1398 16.4625L90.1408 16.4635L92.646 18.9753L93.5 19.8316V18.6222V17.4838C93.5 16.6864 94.1454 16.0412 94.9375 16.0412H104.625H105.125V15.5412V7.77056V7.27056H104.625H81.375Z" fill="#006CB5" stroke="#006CB5"/>
    <mask id="path-3-inside-1_33_328" fill="white">
        <path d="M13.5625 95.1901V120.445H17.4375V95.1901H19.375H32.9375V118.502C32.9375 119.574 33.8055 120.445 34.875 120.445H46.5C47.5695 120.445 48.4375 119.574 48.4375 118.502V89.3622C48.4375 87.167 47.6799 85.1621 46.4496 83.5342H60.0625V116.559H52.3125V120.445H60.0625H63.9375H71.6875V116.559H63.9375V83.5342H73.625H75.5625H77.5039C76.2871 85.1583 75.5625 87.1767 75.5625 89.3622V118.502C75.5625 119.574 76.4305 120.445 77.5 120.445H89.125C90.1945 120.445 91.0625 119.574 91.0625 118.502V95.1901H106.562V120.445H110.438V95.1901C115.779 95.1901 120.125 90.8328 120.125 85.4769V60.2223C120.125 55.9466 117.337 52.3468 113.501 51.055C116.366 48.5586 118.188 44.8909 118.188 40.7958C118.188 33.2972 112.104 27.1972 104.625 27.1972C97.1462 27.1972 91.0625 33.2972 91.0625 40.7958C91.0625 44.8909 92.8838 48.5586 95.7493 51.055C91.9131 52.3468 89.125 55.9466 89.125 60.2223V67.993H73.625C72.5555 67.993 71.6875 68.8633 71.6875 69.9356V79.6489H53.0643L58.0262 64.7215L54.3507 63.4918L48.9781 79.6489H38.75H36.8125H31.4786L34.4933 66.0503H44.5625C45.0759 66.0503 45.57 65.8463 45.9323 65.4811L56.9896 54.3944H58.3749C58.2103 55.0238 58.125 55.6765 58.125 56.337C58.125 60.6225 61.6009 64.1077 65.875 64.1077C70.1491 64.1077 73.625 60.6225 73.625 56.337C73.625 55.6765 73.5397 55.0238 73.3751 54.3944H77.5C78.5695 54.3944 79.4375 53.5241 79.4375 52.4517V43.1658C79.4375 42.3965 78.9861 41.7011 78.2847 41.3903C77.5872 41.0814 76.7676 41.2115 76.198 41.7263C75.4811 42.3791 74.5666 42.7385 73.625 42.7385C71.4879 42.7385 69.75 40.9959 69.75 38.8531C69.75 36.7104 71.4879 34.9678 73.625 34.9678C74.5666 34.9678 75.4811 35.3272 76.1999 35.98C76.7676 36.4967 77.5852 36.6249 78.2866 36.316C78.9861 36.0052 79.4375 35.3078 79.4375 34.5405V25.2546C79.4375 24.1822 78.5695 23.3119 77.5 23.3119H73.3751C73.5397 22.6825 73.625 22.0298 73.625 21.3693C73.625 17.0838 70.1491 13.5986 65.875 13.5986C61.6009 13.5986 58.125 17.0838 58.125 21.3693C58.125 22.0298 58.2103 22.6825 58.3749 23.3119H54.25C53.1805 23.3119 52.3125 24.1822 52.3125 25.2546V38.0489L39.8854 50.5091H34.6619C37.1806 48.038 38.75 44.5995 38.75 40.7958C38.75 33.2972 32.6663 27.1972 25.1875 27.1972C17.7087 27.1972 11.625 33.2972 11.625 40.7958C11.625 44.9706 13.5141 48.7063 16.4765 51.2045C13.4424 52.407 11.1174 55.0879 10.4993 58.4506L7.75 72.5524V56.337H3.875V85.4769C3.875 90.8328 8.22081 95.1901 13.5625 95.1901ZM94.9375 40.7958C94.9375 35.4399 99.2833 31.0825 104.625 31.0825C109.967 31.0825 114.312 35.4399 114.312 40.7958C114.312 46.1517 109.967 50.5091 104.625 50.5091C99.2833 50.5091 94.9375 46.1517 94.9375 40.7958ZM75.5625 71.8783H91.0625C92.132 71.8783 93 71.008 93 69.9356V60.2223C93 57.0092 95.6079 54.3944 98.8125 54.3944H110.438C113.642 54.3944 116.25 57.0092 116.25 60.2223V85.4769C116.25 88.69 113.642 91.3048 110.438 91.3048H89.125C88.0555 91.3048 87.1875 92.1751 87.1875 93.2475V116.559H79.4375V89.3622C79.4375 86.149 82.0454 83.5342 85.25 83.5342H102.688C103.757 83.5342 104.625 82.6639 104.625 81.5915V64.1077H100.75V79.6489H75.5625V71.8783ZM56.1875 27.1972H61.5737C62.341 27.1972 63.0346 26.7446 63.3446 26.0413C63.6566 25.34 63.5248 24.5183 63.0094 23.9491C62.3584 23.2303 62 22.3134 62 21.3693C62 19.2265 63.7379 17.4839 65.875 17.4839C68.0121 17.4839 69.75 19.2265 69.75 21.3693C69.75 22.3134 69.3916 23.2303 68.7406 23.951C68.2252 24.5202 68.0954 25.34 68.4054 26.0433C68.7154 26.7446 69.409 27.1972 70.1763 27.1972H75.5625V31.3331C74.9348 31.168 74.2838 31.0825 73.625 31.0825C69.3509 31.0825 65.875 34.5676 65.875 38.8531C65.875 43.1386 69.3509 46.6238 73.625 46.6238C74.2838 46.6238 74.9348 46.5383 75.5625 46.3732V50.5091H70.1763C69.409 50.5091 68.7154 50.9617 68.4054 51.665C68.0934 52.3682 68.2271 53.188 68.7406 53.7572C69.3916 54.476 69.75 55.3929 69.75 56.337C69.75 58.4798 68.0121 60.2223 65.875 60.2223C63.7379 60.2223 62 58.4798 62 56.337C62 55.3929 62.3584 54.476 63.0094 53.7572C63.5248 53.188 63.6566 52.3682 63.3446 51.665C63.0346 50.9617 62.341 50.5091 61.5737 50.5091H60.8646L63.3698 47.9972C64.1274 47.2376 64.1274 46.0099 63.3698 45.2503L56.1875 38.0489V27.1972ZM15.5 40.7958C15.5 35.4399 19.8458 31.0825 25.1875 31.0825C30.5292 31.0825 34.875 35.4399 34.875 40.7958C34.875 46.1517 30.5292 50.5091 25.1875 50.5091C19.8458 50.5091 15.5 46.1517 15.5 40.7958ZM9.37944 84.4511L14.3046 59.1753C14.8141 56.405 17.2244 54.3944 20.0338 54.3944H40.6875C41.2009 54.3944 41.695 54.1904 42.0573 53.8252L54.25 41.6001L59.2604 46.6238L54.8177 51.0783L43.7604 62.165H32.9375C32.0288 62.165 31.2422 62.7983 31.0465 63.6861L27.1715 81.17C27.0436 81.745 27.1831 82.3472 27.5513 82.8057C27.9194 83.2661 28.4754 83.5342 29.0625 83.5342H36.8125H38.75C41.9546 83.5342 44.5625 86.149 44.5625 89.3622V116.559H36.8125V93.2475C36.8125 92.1751 35.9445 91.3048 34.875 91.3048H19.375H15.0931C13.3687 91.3048 11.7432 90.5414 10.6388 89.2106C9.52863 87.878 9.07331 86.1354 9.37944 84.4511Z"/>
    </mask>
    <path d="M13.5625 95.1901V120.445H17.4375V95.1901H19.375H32.9375V118.502C32.9375 119.574 33.8055 120.445 34.875 120.445H46.5C47.5695 120.445 48.4375 119.574 48.4375 118.502V89.3622C48.4375 87.167 47.6799 85.1621 46.4496 83.5342H60.0625V116.559H52.3125V120.445H60.0625H63.9375H71.6875V116.559H63.9375V83.5342H73.625H75.5625H77.5039C76.2871 85.1583 75.5625 87.1767 75.5625 89.3622V118.502C75.5625 119.574 76.4305 120.445 77.5 120.445H89.125C90.1945 120.445 91.0625 119.574 91.0625 118.502V95.1901H106.562V120.445H110.438V95.1901C115.779 95.1901 120.125 90.8328 120.125 85.4769V60.2223C120.125 55.9466 117.337 52.3468 113.501 51.055C116.366 48.5586 118.188 44.8909 118.188 40.7958C118.188 33.2972 112.104 27.1972 104.625 27.1972C97.1462 27.1972 91.0625 33.2972 91.0625 40.7958C91.0625 44.8909 92.8838 48.5586 95.7493 51.055C91.9131 52.3468 89.125 55.9466 89.125 60.2223V67.993H73.625C72.5555 67.993 71.6875 68.8633 71.6875 69.9356V79.6489H53.0643L58.0262 64.7215L54.3507 63.4918L48.9781 79.6489H38.75H36.8125H31.4786L34.4933 66.0503H44.5625C45.0759 66.0503 45.57 65.8463 45.9323 65.4811L56.9896 54.3944H58.3749C58.2103 55.0238 58.125 55.6765 58.125 56.337C58.125 60.6225 61.6009 64.1077 65.875 64.1077C70.1491 64.1077 73.625 60.6225 73.625 56.337C73.625 55.6765 73.5397 55.0238 73.3751 54.3944H77.5C78.5695 54.3944 79.4375 53.5241 79.4375 52.4517V43.1658C79.4375 42.3965 78.9861 41.7011 78.2847 41.3903C77.5872 41.0814 76.7676 41.2115 76.198 41.7263C75.4811 42.3791 74.5666 42.7385 73.625 42.7385C71.4879 42.7385 69.75 40.9959 69.75 38.8531C69.75 36.7104 71.4879 34.9678 73.625 34.9678C74.5666 34.9678 75.4811 35.3272 76.1999 35.98C76.7676 36.4967 77.5852 36.6249 78.2866 36.316C78.9861 36.0052 79.4375 35.3078 79.4375 34.5405V25.2546C79.4375 24.1822 78.5695 23.3119 77.5 23.3119H73.3751C73.5397 22.6825 73.625 22.0298 73.625 21.3693C73.625 17.0838 70.1491 13.5986 65.875 13.5986C61.6009 13.5986 58.125 17.0838 58.125 21.3693C58.125 22.0298 58.2103 22.6825 58.3749 23.3119H54.25C53.1805 23.3119 52.3125 24.1822 52.3125 25.2546V38.0489L39.8854 50.5091H34.6619C37.1806 48.038 38.75 44.5995 38.75 40.7958C38.75 33.2972 32.6663 27.1972 25.1875 27.1972C17.7087 27.1972 11.625 33.2972 11.625 40.7958C11.625 44.9706 13.5141 48.7063 16.4765 51.2045C13.4424 52.407 11.1174 55.0879 10.4993 58.4506L7.75 72.5524V56.337H3.875V85.4769C3.875 90.8328 8.22081 95.1901 13.5625 95.1901ZM94.9375 40.7958C94.9375 35.4399 99.2833 31.0825 104.625 31.0825C109.967 31.0825 114.312 35.4399 114.312 40.7958C114.312 46.1517 109.967 50.5091 104.625 50.5091C99.2833 50.5091 94.9375 46.1517 94.9375 40.7958ZM75.5625 71.8783H91.0625C92.132 71.8783 93 71.008 93 69.9356V60.2223C93 57.0092 95.6079 54.3944 98.8125 54.3944H110.438C113.642 54.3944 116.25 57.0092 116.25 60.2223V85.4769C116.25 88.69 113.642 91.3048 110.438 91.3048H89.125C88.0555 91.3048 87.1875 92.1751 87.1875 93.2475V116.559H79.4375V89.3622C79.4375 86.149 82.0454 83.5342 85.25 83.5342H102.688C103.757 83.5342 104.625 82.6639 104.625 81.5915V64.1077H100.75V79.6489H75.5625V71.8783ZM56.1875 27.1972H61.5737C62.341 27.1972 63.0346 26.7446 63.3446 26.0413C63.6566 25.34 63.5248 24.5183 63.0094 23.9491C62.3584 23.2303 62 22.3134 62 21.3693C62 19.2265 63.7379 17.4839 65.875 17.4839C68.0121 17.4839 69.75 19.2265 69.75 21.3693C69.75 22.3134 69.3916 23.2303 68.7406 23.951C68.2252 24.5202 68.0954 25.34 68.4054 26.0433C68.7154 26.7446 69.409 27.1972 70.1763 27.1972H75.5625V31.3331C74.9348 31.168 74.2838 31.0825 73.625 31.0825C69.3509 31.0825 65.875 34.5676 65.875 38.8531C65.875 43.1386 69.3509 46.6238 73.625 46.6238C74.2838 46.6238 74.9348 46.5383 75.5625 46.3732V50.5091H70.1763C69.409 50.5091 68.7154 50.9617 68.4054 51.665C68.0934 52.3682 68.2271 53.188 68.7406 53.7572C69.3916 54.476 69.75 55.3929 69.75 56.337C69.75 58.4798 68.0121 60.2223 65.875 60.2223C63.7379 60.2223 62 58.4798 62 56.337C62 55.3929 62.3584 54.476 63.0094 53.7572C63.5248 53.188 63.6566 52.3682 63.3446 51.665C63.0346 50.9617 62.341 50.5091 61.5737 50.5091H60.8646L63.3698 47.9972C64.1274 47.2376 64.1274 46.0099 63.3698 45.2503L56.1875 38.0489V27.1972ZM15.5 40.7958C15.5 35.4399 19.8458 31.0825 25.1875 31.0825C30.5292 31.0825 34.875 35.4399 34.875 40.7958C34.875 46.1517 30.5292 50.5091 25.1875 50.5091C19.8458 50.5091 15.5 46.1517 15.5 40.7958ZM9.37944 84.4511L14.3046 59.1753C14.8141 56.405 17.2244 54.3944 20.0338 54.3944H40.6875C41.2009 54.3944 41.695 54.1904 42.0573 53.8252L54.25 41.6001L59.2604 46.6238L54.8177 51.0783L43.7604 62.165H32.9375C32.0288 62.165 31.2422 62.7983 31.0465 63.6861L27.1715 81.17C27.0436 81.745 27.1831 82.3472 27.5513 82.8057C27.9194 83.2661 28.4754 83.5342 29.0625 83.5342H36.8125H38.75C41.9546 83.5342 44.5625 86.149 44.5625 89.3622V116.559H36.8125V93.2475C36.8125 92.1751 35.9445 91.3048 34.875 91.3048H19.375H15.0931C13.3687 91.3048 11.7432 90.5414 10.6388 89.2106C9.52863 87.878 9.07331 86.1354 9.37944 84.4511Z" fill="#006CB5" stroke="#006CB5" stroke-width="2" mask="url(#path-3-inside-1_33_328)"/>
    <path d="M12.125 15.0412V12.1559H18.875V15.0412H12.125Z" fill="#006CB5" stroke="#006CB5"/>
    <path d="M23.75 15.0412V12.1559H26.625V15.0412H23.75Z" fill="#006CB5" stroke="#006CB5"/>
    <path d="M31.5 15.0412V12.1559H34.375V15.0412H31.5Z" fill="#006CB5" stroke="#006CB5"/>
    <path d="M39.25 15.0412V12.1559H42.125V15.0412H39.25Z" fill="#006CB5" stroke="#006CB5"/>
</svg>
