<svg width="357" height="68" viewBox="0 0 357 68" fill="none" xmlns="http://www.w3.org/2000/svg">
<path d="M10 13.6326V17.4922H21.5464L21.5464 17.9138L21.5464 18.5625H10V21.9356V25.0817H21.6761L21.6761 25.6979L21.6761 26.0871H10V29.59V33.0928H21.6242L21.6242 33.5339L21.6242 34.1307H10V37.5038V40.8769H15.8381H21.6242L21.6242 41.9148H15.4229H10V45.2879V48.661H21.6242L21.6242 49.1021V49.6989H10V53.7207V57.7424H78.5H147V53.7207V49.6989H135.376L135.376 49.128L135.376 48.5961H147L147 45.2879L147 42.0769H135.324L135.324 41.3958L135.324 40.8769H147V37.5038V34.1307H135.324L135.324 33.6117L135.324 33.0928H147V29.59L147 26.4439H135.324L135.324 25.6979L135.324 25.3087H147V21.9356V18.5625H135.454L135.454 17.9138L135.454 17.4922H147L147 13.6326V10H78.5H10V13.6326ZM125.931 17.4208C129.097 18.1214 131.354 19.808 131.977 21.9356C132.132 22.4286 132.21 23.7778 132.158 24.9195L132.08 26.9953L127.773 27.0731L123.44 27.125L123.259 26.1909C123.025 24.8417 122.428 24.0633 121.235 23.4405C119.704 22.6881 116.279 22.8697 114.437 23.8038C110.7 25.7239 107.794 31.2506 107.716 36.5957C107.788 38.866 107.742 39.0087 108.521 40.358C109.481 42.0186 110.674 42.9008 112.568 43.3938C114.177 43.8089 117.369 43.8089 118.977 43.3938L120.145 43.0824L120.56 41.1364C120.768 40.0725 121.027 38.8011 121.131 38.3341L121.312 37.5038H118.043H114.774L114.955 36.2583C115.033 35.5837 115.319 34.2085 115.578 33.2225L116.071 31.4063L123.622 31.3284C130.965 31.2765 131.172 31.2765 131.172 31.7695C131.172 32.2885 130.705 34.7015 130.005 37.7633C129.797 38.6974 129.2 41.3699 128.681 43.7311C128.188 46.0922 127.67 48.0902 127.566 48.1939C127.358 48.4275 120.742 49.4913 116.668 49.9583C108.547 50.9184 102.423 48.8426 99.8284 44.25C97.7786 40.6434 97.8305 35.0907 99.9062 29.7197C101.048 26.7099 102.319 24.7898 104.68 22.4546C108.91 18.2511 113.918 16.6165 121.442 16.9278C123.025 17.0057 125.023 17.2133 125.931 17.4208ZM55.0504 17.5246L53.6687 23.6222L40.0661 23.7843L38.3146 31.0171H44.6133H50.8665L49.6729 37.2443H43.4456H37.2443L34.228 49.4394C34.228 49.4394 32.989 49.4394 29.9532 49.4394H25.5682L32.3922 17.5246H55.0504ZM67.9396 17.5246L61.1804 49.4394H56.7045H52.2287L59.3317 17.5571L63.6324 17.5246H67.9396ZM98.2716 17.5246L96.9872 23.7519C96.9872 23.7519 93.134 23.7519 89.0085 23.7519H81.4839L80.0568 30.2386H94.3601L92.9525 36.4659L85.817 36.5178L78.6816 36.5957L78.0848 39.5796C77.7475 41.2142 77.3324 43.2121 77.3324 43.2121H85.1424C92.3296 43.2121 92.706 43.2121 92.706 43.2121L91.3438 49.2318H67.1158C67.1158 49.2318 67.2716 48.5997 67.3688 48.1939C67.8084 46.3576 68.4066 43.4716 68.4066 43.4716C68.8477 41.3958 69.4705 38.4119 69.8078 36.8551C70.1451 35.2724 70.664 32.8333 70.9754 31.4063C71.2608 29.9792 71.7278 27.8256 72.0133 26.6061C72.2727 25.3866 73.2068 21.1572 73.2068 21.1572L74.0241 17.5246H98.2716Z" fill="#006CB5"/>
<path d="M157.597 34L159.287 23.8182H165.392L165.213 24.9119H160.341L159.764 28.3523H164.179L164 29.446H159.585L158.83 34H157.597ZM168.276 34.1591C167.543 34.1591 166.938 33.9967 166.461 33.6719C165.984 33.3438 165.651 32.8864 165.462 32.2997C165.273 31.7098 165.243 31.0237 165.372 30.2415C165.501 29.4593 165.758 28.7699 166.143 28.1733C166.527 27.5734 167.006 27.1061 167.58 26.7713C168.153 26.4332 168.783 26.2642 169.469 26.2642C169.866 26.2642 170.249 26.3305 170.617 26.4631C170.985 26.5956 171.303 26.8111 171.572 27.1094C171.84 27.4044 172.027 27.7955 172.134 28.2827C172.24 28.7699 172.233 29.3698 172.114 30.0824L172.034 30.5795H166.148L166.307 29.5653H171C171.076 29.1345 171.056 28.75 170.94 28.4119C170.828 28.0739 170.63 27.8071 170.349 27.6115C170.07 27.416 169.717 27.3182 169.29 27.3182C168.849 27.3182 168.438 27.4375 168.057 27.6761C167.676 27.9115 167.357 28.2098 167.102 28.571C166.847 28.929 166.688 29.2936 166.625 29.6648L166.486 30.5398C166.386 31.1728 166.401 31.6766 166.531 32.0511C166.663 32.4257 166.893 32.6958 167.222 32.8615C167.55 33.0239 167.961 33.1051 168.455 33.1051C168.769 33.1051 169.059 33.062 169.325 32.9759C169.59 32.8864 169.827 32.7538 170.036 32.5781C170.244 32.3991 170.42 32.1771 170.562 31.9119L171.636 32.2301C171.454 32.6146 171.197 32.9527 170.866 33.2443C170.538 33.5327 170.153 33.758 169.712 33.9205C169.275 34.0795 168.796 34.1591 168.276 34.1591ZM176.143 34.1591C175.503 34.1591 174.967 33.9983 174.532 33.6768C174.098 33.352 173.792 32.8946 173.613 32.3047C173.437 31.7114 173.415 31.0104 173.548 30.2017C173.684 29.3996 173.937 28.7036 174.309 28.1136C174.683 27.5237 175.142 27.0679 175.686 26.7464C176.229 26.425 176.823 26.2642 177.466 26.2642C177.963 26.2642 178.342 26.3471 178.604 26.5128C178.869 26.6752 179.061 26.8608 179.181 27.0696C179.3 27.2751 179.391 27.4441 179.454 27.5767H179.554L180.18 23.8182H181.353L179.663 34H178.529L178.728 32.8267H178.589C178.48 32.9659 178.327 33.1416 178.132 33.3537C177.936 33.5625 177.678 33.7498 177.356 33.9155C177.038 34.0779 176.634 34.1591 176.143 34.1591ZM176.431 33.1051C176.902 33.1051 177.323 32.9825 177.694 32.7372C178.069 32.4886 178.38 32.1456 178.629 31.7081C178.877 31.2673 179.05 30.7585 179.146 30.1818C179.242 29.6117 179.239 29.1129 179.136 28.6854C179.033 28.2545 178.836 27.9197 178.544 27.6811C178.253 27.4392 177.867 27.3182 177.386 27.3182C176.892 27.3182 176.463 27.4458 176.098 27.701C175.734 27.9529 175.437 28.2959 175.208 28.7301C174.98 29.161 174.821 29.6449 174.731 30.1818C174.642 30.7254 174.64 31.2192 174.726 31.6634C174.812 32.1042 174.995 32.4555 175.273 32.7173C175.555 32.9759 175.941 33.1051 176.431 33.1051ZM185.147 34.1591C184.414 34.1591 183.809 33.9967 183.332 33.6719C182.855 33.3438 182.522 32.8864 182.333 32.2997C182.144 31.7098 182.114 31.0237 182.243 30.2415C182.373 29.4593 182.629 28.7699 183.014 28.1733C183.398 27.5734 183.877 27.1061 184.451 26.7713C185.024 26.4332 185.654 26.2642 186.34 26.2642C186.738 26.2642 187.12 26.3305 187.488 26.4631C187.856 26.5956 188.174 26.8111 188.443 27.1094C188.711 27.4044 188.899 27.7955 189.005 28.2827C189.111 28.7699 189.104 29.3698 188.985 30.0824L188.905 30.5795H183.019L183.178 29.5653H187.871C187.947 29.1345 187.927 28.75 187.811 28.4119C187.699 28.0739 187.502 27.8071 187.22 27.6115C186.941 27.416 186.588 27.3182 186.161 27.3182C185.72 27.3182 185.309 27.4375 184.928 27.6761C184.547 27.9115 184.229 28.2098 183.973 28.571C183.718 28.929 183.559 29.2936 183.496 29.6648L183.357 30.5398C183.257 31.1728 183.272 31.6766 183.402 32.0511C183.534 32.4257 183.765 32.6958 184.093 32.8615C184.421 33.0239 184.832 33.1051 185.326 33.1051C185.641 33.1051 185.931 33.062 186.196 32.9759C186.461 32.8864 186.698 32.7538 186.907 32.5781C187.115 32.3991 187.291 32.1771 187.434 31.9119L188.507 32.2301C188.325 32.6146 188.068 32.9527 187.737 33.2443C187.409 33.5327 187.024 33.758 186.583 33.9205C186.146 34.0795 185.667 34.1591 185.147 34.1591ZM190.141 34L191.413 26.3636H192.547L192.348 27.517H192.428C192.626 27.1392 192.93 26.8326 193.337 26.5973C193.745 26.362 194.178 26.2443 194.635 26.2443C194.724 26.2443 194.832 26.246 194.958 26.2493C195.084 26.2493 195.182 26.2543 195.251 26.2642L195.053 27.4574C195.013 27.4474 194.923 27.4325 194.784 27.4126C194.645 27.3894 194.496 27.3778 194.337 27.3778C193.965 27.3778 193.622 27.4557 193.308 27.6115C192.993 27.764 192.729 27.9761 192.517 28.2479C192.305 28.5163 192.169 28.8229 192.109 29.1676L191.314 34H190.141ZM197.604 34.179C197.12 34.179 196.696 34.0878 196.331 33.9055C195.967 33.7199 195.697 33.4531 195.521 33.1051C195.345 32.7538 195.297 32.3295 195.377 31.8324C195.453 31.3949 195.601 31.0402 195.819 30.7685C196.038 30.4934 196.303 30.2779 196.615 30.1222C196.93 29.9631 197.268 29.8454 197.629 29.7692C197.994 29.6896 198.357 29.6283 198.718 29.5852C199.189 29.5256 199.571 29.4792 199.866 29.446C200.161 29.4129 200.383 29.3582 200.532 29.282C200.682 29.2057 200.773 29.0748 200.806 28.8892V28.8494C200.885 28.3622 200.821 27.9827 200.612 27.7109C200.403 27.4358 200.03 27.2983 199.493 27.2983C198.937 27.2983 198.471 27.4209 198.096 27.6662C197.722 27.9115 197.445 28.1733 197.266 28.4517L196.232 28.054C196.504 27.59 196.829 27.2287 197.206 26.9702C197.584 26.7083 197.98 26.526 198.395 26.4233C198.809 26.3172 199.208 26.2642 199.593 26.2642C199.838 26.2642 200.115 26.294 200.423 26.3537C200.731 26.41 201.02 26.5277 201.288 26.7067C201.56 26.8857 201.764 27.1558 201.9 27.517C202.039 27.8783 202.059 28.3622 201.959 28.9688L201.124 34H199.951L200.13 32.9659H200.07C199.964 33.1316 199.802 33.3089 199.583 33.4979C199.367 33.6868 199.094 33.8475 198.763 33.9801C198.434 34.1127 198.048 34.179 197.604 34.179ZM197.942 33.125C198.406 33.125 198.812 33.0339 199.16 32.8516C199.512 32.6693 199.793 32.4339 200.006 32.1456C200.221 31.8572 200.355 31.554 200.408 31.2358L200.587 30.1619C200.528 30.2216 200.41 30.2763 200.234 30.326C200.059 30.3724 199.86 30.4138 199.638 30.4503C199.419 30.4834 199.205 30.5133 198.996 30.5398C198.791 30.563 198.625 30.5829 198.499 30.5994C198.188 30.6392 197.891 30.7038 197.609 30.7933C197.331 30.8795 197.095 31.0104 196.903 31.1861C196.714 31.3584 196.597 31.5937 196.55 31.892C196.481 32.2997 196.578 32.608 196.844 32.8168C197.109 33.0223 197.475 33.125 197.942 33.125ZM206.348 34.1591C205.629 34.1591 205.039 33.9901 204.578 33.652C204.121 33.3139 203.803 32.8482 203.624 32.255C203.445 31.6617 203.418 30.9839 203.544 30.2216C203.67 29.446 203.925 28.7616 204.31 28.1683C204.694 27.5717 205.173 27.1061 205.746 26.7713C206.32 26.4332 206.951 26.2642 207.641 26.2642C208.178 26.2642 208.645 26.3636 209.043 26.5625C209.44 26.7614 209.747 27.0398 209.962 27.3977C210.178 27.7557 210.279 28.1733 210.266 28.6506H209.092C209.059 28.3026 208.91 27.9943 208.645 27.7259C208.383 27.4541 207.995 27.3182 207.482 27.3182C207.024 27.3182 206.603 27.4375 206.219 27.6761C205.834 27.9115 205.511 28.2446 205.249 28.6754C204.987 29.103 204.81 29.6051 204.717 30.1818C204.618 30.7718 204.626 31.2855 204.742 31.723C204.858 32.1605 205.069 32.5002 205.374 32.7422C205.679 32.9841 206.063 33.1051 206.527 33.1051C206.832 33.1051 207.117 33.0521 207.382 32.946C207.647 32.84 207.883 32.6875 208.088 32.4886C208.294 32.2898 208.456 32.0511 208.575 31.7727H209.749C209.603 32.2235 209.369 32.6295 209.048 32.9908C208.726 33.3487 208.337 33.6338 207.879 33.8459C207.422 34.0547 206.911 34.1591 206.348 34.1591ZM205.911 33.9602H206.885L206.726 34.358C206.984 34.3977 207.205 34.5054 207.387 34.6811C207.573 34.8601 207.631 35.1435 207.561 35.5312C207.491 35.9588 207.258 36.3068 206.86 36.5753C206.462 36.8471 205.92 36.983 205.234 36.983L205.334 36.2074C205.642 36.2074 205.904 36.1577 206.119 36.0582C206.338 35.9621 206.467 35.7997 206.507 35.571C206.547 35.3423 206.489 35.1866 206.333 35.1037C206.177 35.0208 205.911 34.9645 205.533 34.9347L205.911 33.9602ZM213.313 34.179C212.829 34.179 212.405 34.0878 212.04 33.9055C211.676 33.7199 211.406 33.4531 211.23 33.1051C211.054 32.7538 211.006 32.3295 211.086 31.8324C211.162 31.3949 211.31 31.0402 211.528 30.7685C211.747 30.4934 212.012 30.2779 212.324 30.1222C212.639 29.9631 212.977 29.8454 213.338 29.7692C213.703 29.6896 214.066 29.6283 214.427 29.5852C214.897 29.5256 215.28 29.4792 215.575 29.446C215.87 29.4129 216.092 29.3582 216.241 29.282C216.391 29.2057 216.482 29.0748 216.515 28.8892V28.8494C216.594 28.3622 216.53 27.9827 216.321 27.7109C216.112 27.4358 215.739 27.2983 215.202 27.2983C214.646 27.2983 214.18 27.4209 213.805 27.6662C213.431 27.9115 213.154 28.1733 212.975 28.4517L211.941 28.054C212.213 27.59 212.538 27.2287 212.915 26.9702C213.293 26.7083 213.689 26.526 214.104 26.4233C214.518 26.3172 214.917 26.2642 215.302 26.2642C215.547 26.2642 215.824 26.294 216.132 26.3537C216.44 26.41 216.729 26.5277 216.997 26.7067C217.269 26.8857 217.473 27.1558 217.609 27.517C217.748 27.8783 217.768 28.3622 217.668 28.9688L216.833 34H215.66L215.839 32.9659H215.779C215.673 33.1316 215.511 33.3089 215.292 33.4979C215.076 33.6868 214.803 33.8475 214.472 33.9801C214.143 34.1127 213.757 34.179 213.313 34.179ZM213.651 33.125C214.115 33.125 214.521 33.0339 214.869 32.8516C215.221 32.6693 215.502 32.4339 215.714 32.1456C215.93 31.8572 216.064 31.554 216.117 31.2358L216.296 30.1619C216.237 30.2216 216.119 30.2763 215.943 30.326C215.768 30.3724 215.569 30.4138 215.347 30.4503C215.128 30.4834 214.914 30.5133 214.705 30.5398C214.5 30.563 214.334 30.5829 214.208 30.5994C213.897 30.6392 213.6 30.7038 213.318 30.7933C213.04 30.8795 212.804 31.0104 212.612 31.1861C212.423 31.3584 212.306 31.5937 212.259 31.892C212.19 32.2997 212.287 32.608 212.553 32.8168C212.818 33.0223 213.184 33.125 213.651 33.125ZM213.969 25.4489L213.075 25.4091C213.154 24.902 213.365 24.4877 213.706 24.1662C214.051 23.8414 214.437 23.679 214.864 23.679C215.053 23.679 215.216 23.7121 215.352 23.7784C215.487 23.8414 215.615 23.9143 215.734 23.9972C215.854 24.08 215.978 24.1546 216.107 24.2209C216.24 24.2839 216.396 24.3153 216.575 24.3153C216.763 24.3153 216.936 24.2424 217.092 24.0966C217.247 23.9474 217.34 23.7685 217.37 23.5597L218.245 23.6392C218.165 24.1562 217.953 24.5672 217.609 24.8722C217.267 25.1771 216.883 25.3295 216.455 25.3295C216.227 25.3295 216.044 25.2981 215.908 25.2351C215.772 25.1688 215.653 25.0942 215.55 25.0114C215.448 24.9285 215.338 24.8556 215.222 24.7926C215.106 24.7263 214.954 24.6932 214.765 24.6932C214.576 24.6932 214.405 24.7678 214.253 24.9169C214.104 25.0627 214.009 25.2401 213.969 25.4489ZM222.127 34.1591C221.424 34.1591 220.836 33.9917 220.362 33.657C219.888 33.3222 219.553 32.8532 219.357 32.25C219.165 31.6468 219.134 30.9441 219.263 30.142C219.389 29.3598 219.639 28.6787 220.014 28.0987C220.392 27.5154 220.86 27.0646 221.421 26.7464C221.984 26.425 222.604 26.2642 223.28 26.2642C223.983 26.2642 224.569 26.4332 225.04 26.7713C225.514 27.1061 225.849 27.5767 226.044 28.1832C226.24 28.7865 226.273 29.4924 226.144 30.3011C226.018 31.0767 225.764 31.7545 225.383 32.3345C225.005 32.9112 224.536 33.3603 223.976 33.6818C223.419 34 222.803 34.1591 222.127 34.1591ZM222.146 33.1051C222.683 33.1051 223.149 32.9676 223.544 32.6925C223.941 32.4174 224.263 32.0545 224.508 31.6037C224.757 31.1529 224.924 30.6657 225.01 30.142C225.09 29.6449 225.086 29.1825 225 28.755C224.914 28.3241 224.73 27.9777 224.448 27.7159C224.167 27.4508 223.771 27.3182 223.26 27.3182C222.723 27.3182 222.254 27.4574 221.853 27.7358C221.455 28.0142 221.134 28.3804 220.889 28.8345C220.643 29.2886 220.479 29.7775 220.396 30.3011C220.317 30.7983 220.319 31.2607 220.401 31.6882C220.488 32.1125 220.672 32.4555 220.953 32.7173C221.238 32.9759 221.636 33.1051 222.146 33.1051ZM234.139 34.1591C233.5 34.1591 232.963 33.9983 232.528 33.6768C232.094 33.352 231.788 32.8946 231.609 32.3047C231.433 31.7114 231.411 31.0104 231.544 30.2017C231.68 29.3996 231.933 28.7036 232.305 28.1136C232.679 27.5237 233.138 27.0679 233.682 26.7464C234.225 26.425 234.819 26.2642 235.462 26.2642C235.959 26.2642 236.338 26.3471 236.6 26.5128C236.865 26.6752 237.058 26.8608 237.177 27.0696C237.296 27.2751 237.387 27.4441 237.45 27.5767H237.55L238.176 23.8182H239.349L237.659 34H236.526L236.724 32.8267H236.585C236.476 32.9659 236.323 33.1416 236.128 33.3537C235.932 33.5625 235.674 33.7498 235.352 33.9155C235.034 34.0779 234.63 34.1591 234.139 34.1591ZM234.428 33.1051C234.898 33.1051 235.319 32.9825 235.69 32.7372C236.065 32.4886 236.376 32.1456 236.625 31.7081C236.874 31.2673 237.046 30.7585 237.142 30.1818C237.238 29.6117 237.235 29.1129 237.132 28.6854C237.029 28.2545 236.832 27.9197 236.54 27.6811C236.249 27.4392 235.863 27.3182 235.382 27.3182C234.888 27.3182 234.459 27.4458 234.094 27.701C233.73 27.9529 233.433 28.2959 233.205 28.7301C232.976 29.161 232.817 29.6449 232.727 30.1818C232.638 30.7254 232.636 31.2192 232.722 31.6634C232.808 32.1042 232.991 32.4555 233.269 32.7173C233.551 32.9759 233.937 33.1051 234.428 33.1051ZM242.188 34.179C241.704 34.179 241.28 34.0878 240.915 33.9055C240.551 33.7199 240.281 33.4531 240.105 33.1051C239.929 32.7538 239.881 32.3295 239.961 31.8324C240.037 31.3949 240.185 31.0402 240.403 30.7685C240.622 30.4934 240.887 30.2779 241.199 30.1222C241.514 29.9631 241.852 29.8454 242.213 29.7692C242.578 29.6896 242.941 29.6283 243.302 29.5852C243.772 29.5256 244.155 29.4792 244.45 29.446C244.745 29.4129 244.967 29.3582 245.116 29.282C245.266 29.2057 245.357 29.0748 245.39 28.8892V28.8494C245.469 28.3622 245.405 27.9827 245.196 27.7109C244.987 27.4358 244.614 27.2983 244.077 27.2983C243.521 27.2983 243.055 27.4209 242.68 27.6662C242.306 27.9115 242.029 28.1733 241.85 28.4517L240.816 28.054C241.088 27.59 241.413 27.2287 241.79 26.9702C242.168 26.7083 242.564 26.526 242.979 26.4233C243.393 26.3172 243.792 26.2642 244.177 26.2642C244.422 26.2642 244.699 26.294 245.007 26.3537C245.315 26.41 245.604 26.5277 245.872 26.7067C246.144 26.8857 246.348 27.1558 246.484 27.517C246.623 27.8783 246.643 28.3622 246.543 28.9688L245.708 34H244.535L244.714 32.9659H244.654C244.548 33.1316 244.386 33.3089 244.167 33.4979C243.951 33.6868 243.678 33.8475 243.347 33.9801C243.018 34.1127 242.632 34.179 242.188 34.179ZM242.526 33.125C242.99 33.125 243.396 33.0339 243.744 32.8516C244.096 32.6693 244.377 32.4339 244.589 32.1456C244.805 31.8572 244.939 31.554 244.992 31.2358L245.171 30.1619C245.112 30.2216 244.994 30.2763 244.818 30.326C244.643 30.3724 244.444 30.4138 244.222 30.4503C244.003 30.4834 243.789 30.5133 243.58 30.5398C243.375 30.563 243.209 30.5829 243.083 30.5994C242.772 30.6392 242.475 30.7038 242.193 30.7933C241.915 30.8795 241.679 31.0104 241.487 31.1861C241.298 31.3584 241.181 31.5937 241.134 31.892C241.065 32.2997 241.162 32.608 241.428 32.8168C241.693 33.0223 242.059 33.125 242.526 33.125ZM254.253 28.0739L253.139 28.3722C253.1 28.1932 253.03 28.0208 252.931 27.8551C252.834 27.6861 252.685 27.5485 252.483 27.4425C252.284 27.3331 252.012 27.2784 251.668 27.2784C251.2 27.2784 250.794 27.3861 250.45 27.6016C250.105 27.8137 249.908 28.0838 249.858 28.4119C249.808 28.7003 249.875 28.9306 250.057 29.103C250.239 29.2753 250.544 29.4162 250.972 29.5256L252.066 29.804C252.722 29.973 253.189 30.2266 253.468 30.5646C253.749 30.8994 253.845 31.3352 253.756 31.8722C253.683 32.3097 253.492 32.7008 253.184 33.0455C252.876 33.3902 252.481 33.6619 252.001 33.8608C251.52 34.0597 250.985 34.1591 250.395 34.1591C249.61 34.1591 248.99 33.9901 248.536 33.652C248.082 33.3106 247.84 32.8168 247.81 32.1705L248.983 31.892C249.013 32.2997 249.159 32.608 249.421 32.8168C249.686 33.0223 250.057 33.125 250.534 33.125C251.081 33.125 251.537 33.009 251.901 32.777C252.266 32.5417 252.473 32.2599 252.523 31.9318C252.573 31.6634 252.52 31.4396 252.364 31.2607C252.211 31.0817 251.946 30.9474 251.568 30.858L250.355 30.5597C249.679 30.3906 249.205 30.1321 248.933 29.7841C248.665 29.4361 248.575 28.9986 248.665 28.4716C248.738 28.0407 248.923 27.6596 249.222 27.3281C249.523 26.9967 249.901 26.7365 250.355 26.5476C250.813 26.3587 251.31 26.2642 251.847 26.2642C252.602 26.2642 253.168 26.4299 253.542 26.7614C253.917 27.0895 254.154 27.527 254.253 28.0739ZM262.184 23.8182L260.494 34H259.261L260.951 23.8182H262.184ZM264.736 29.4062L263.98 34H262.807L264.079 26.3636H265.213L265.014 27.5568H265.113C265.352 27.169 265.675 26.8575 266.083 26.6222C266.491 26.3835 266.983 26.2642 267.559 26.2642C268.07 26.2642 268.501 26.3703 268.852 26.5824C269.207 26.7912 269.457 27.1094 269.603 27.5369C269.752 27.9612 269.773 28.4981 269.667 29.1477L268.852 34H267.679L268.474 29.2273C268.574 28.6307 268.496 28.1634 268.241 27.8253C267.989 27.4872 267.589 27.3182 267.042 27.3182C266.665 27.3182 266.315 27.3994 265.993 27.5618C265.675 27.7242 265.405 27.9612 265.183 28.2727C264.964 28.5843 264.815 28.9621 264.736 29.4062ZM273.87 34.1591C273.23 34.1591 272.693 33.9983 272.259 33.6768C271.825 33.352 271.518 32.8946 271.339 32.3047C271.163 31.7114 271.142 31.0104 271.275 30.2017C271.41 29.3996 271.664 28.7036 272.035 28.1136C272.41 27.5237 272.869 27.0679 273.412 26.7464C273.956 26.425 274.549 26.2642 275.192 26.2642C275.689 26.2642 276.069 26.3471 276.331 26.5128C276.596 26.6752 276.788 26.8608 276.907 27.0696C277.027 27.2751 277.118 27.4441 277.181 27.5767H277.28L277.907 23.8182H279.08L277.39 34H276.256L276.455 32.8267H276.316C276.206 32.9659 276.054 33.1416 275.858 33.3537C275.663 33.5625 275.404 33.7498 275.083 33.9155C274.765 34.0779 274.36 34.1591 273.87 34.1591ZM274.158 33.1051C274.629 33.1051 275.05 32.9825 275.421 32.7372C275.795 32.4886 276.107 32.1456 276.355 31.7081C276.604 31.2673 276.776 30.7585 276.873 30.1818C276.969 29.6117 276.965 29.1129 276.863 28.6854C276.76 28.2545 276.563 27.9197 276.271 27.6811C275.979 27.4392 275.593 27.3182 275.113 27.3182C274.619 27.3182 274.19 27.4458 273.825 27.701C273.46 27.9529 273.164 28.2959 272.935 28.7301C272.706 29.161 272.547 29.6449 272.458 30.1818C272.368 30.7254 272.367 31.2192 272.453 31.6634C272.539 32.1042 272.721 32.4555 273 32.7173C273.281 32.9759 273.667 33.1051 274.158 33.1051ZM285.021 30.8778L285.777 26.3636H286.95L285.677 34H284.504L284.723 32.7074H284.643C284.404 33.0952 284.071 33.425 283.644 33.6967C283.216 33.9652 282.714 34.0994 282.137 34.0994C281.66 34.0994 281.252 33.995 280.914 33.7862C280.58 33.5741 280.341 33.2559 280.199 32.8317C280.059 32.4041 280.043 31.8655 280.149 31.2159L280.964 26.3636H282.137L281.342 31.1364C281.252 31.6932 281.337 32.1373 281.596 32.4688C281.854 32.8002 282.227 32.9659 282.714 32.9659C283.006 32.9659 283.314 32.8913 283.639 32.7422C283.967 32.593 284.259 32.3643 284.514 32.0561C284.772 31.7479 284.941 31.3551 285.021 30.8778ZM283.589 25.3295L285.18 23.0227H286.552L284.623 25.3295H283.589ZM294.23 28.0739L293.116 28.3722C293.076 28.1932 293.007 28.0208 292.907 27.8551C292.811 27.6861 292.662 27.5485 292.46 27.4425C292.261 27.3331 291.989 27.2784 291.644 27.2784C291.177 27.2784 290.771 27.3861 290.426 27.6016C290.082 27.8137 289.884 28.0838 289.835 28.4119C289.785 28.7003 289.851 28.9306 290.034 29.103C290.216 29.2753 290.521 29.4162 290.948 29.5256L292.042 29.804C292.698 29.973 293.166 30.2266 293.444 30.5646C293.726 30.8994 293.822 31.3352 293.732 31.8722C293.66 32.3097 293.469 32.7008 293.161 33.0455C292.852 33.3902 292.458 33.6619 291.977 33.8608C291.497 34.0597 290.962 34.1591 290.372 34.1591C289.586 34.1591 288.966 33.9901 288.512 33.652C288.058 33.3106 287.816 32.8168 287.786 32.1705L288.96 31.892C288.99 32.2997 289.135 32.608 289.397 32.8168C289.662 33.0223 290.034 33.125 290.511 33.125C291.058 33.125 291.513 33.009 291.878 32.777C292.243 32.5417 292.45 32.2599 292.499 31.9318C292.549 31.6634 292.496 31.4396 292.34 31.2607C292.188 31.0817 291.923 30.9474 291.545 30.858L290.332 30.5597C289.656 30.3906 289.182 30.1321 288.91 29.7841C288.642 29.4361 288.552 28.9986 288.642 28.4716C288.714 28.0407 288.9 27.6596 289.198 27.3281C289.5 26.9967 289.878 26.7365 290.332 26.5476C290.789 26.3587 291.286 26.2642 291.823 26.2642C292.579 26.2642 293.144 26.4299 293.519 26.7614C293.893 27.0895 294.13 27.527 294.23 28.0739ZM299.734 26.3636L299.575 27.358H295.618L295.777 26.3636H299.734ZM297.229 24.5341H298.402L297.189 31.8125C297.136 32.1439 297.144 32.3925 297.214 32.5582C297.287 32.7206 297.396 32.83 297.542 32.8864C297.691 32.9394 297.852 32.9659 298.024 32.9659C298.153 32.9659 298.259 32.9593 298.342 32.946C298.425 32.9295 298.491 32.9162 298.541 32.9062L298.621 33.9602C298.531 33.9901 298.41 34.0199 298.258 34.0497C298.109 34.0829 297.925 34.0994 297.706 34.0994C297.375 34.0994 297.063 34.0282 296.771 33.8857C296.48 33.7431 296.256 33.526 296.1 33.2344C295.944 32.9427 295.903 32.5748 295.976 32.1307L297.229 24.5341ZM300.227 34L301.499 26.3636H302.633L302.434 27.517H302.513C302.712 27.1392 303.016 26.8326 303.423 26.5973C303.831 26.362 304.263 26.2443 304.721 26.2443C304.81 26.2443 304.918 26.246 305.044 26.2493C305.17 26.2493 305.268 26.2543 305.337 26.2642L305.138 27.4574C305.099 27.4474 305.009 27.4325 304.87 27.4126C304.731 27.3894 304.582 27.3778 304.423 27.3778C304.051 27.3778 303.708 27.4557 303.393 27.6115C303.079 27.764 302.815 27.9761 302.603 28.2479C302.391 28.5163 302.255 28.8229 302.195 29.1676L301.4 34H300.227ZM305.463 34L306.736 26.3636H307.909L306.636 34H305.463ZM307.68 25.071C307.452 25.071 307.254 24.9931 307.089 24.8374C306.926 24.6816 306.845 24.4943 306.845 24.2756C306.845 24.0568 306.926 23.8696 307.089 23.7138C307.254 23.558 307.452 23.4801 307.68 23.4801C307.909 23.4801 308.104 23.558 308.267 23.7138C308.433 23.8696 308.515 24.0568 308.515 24.2756C308.515 24.4943 308.433 24.6816 308.267 24.8374C308.104 24.9931 307.909 25.071 307.68 25.071ZM311.012 34.179C310.529 34.179 310.104 34.0878 309.74 33.9055C309.375 33.7199 309.105 33.4531 308.929 33.1051C308.754 32.7538 308.706 32.3295 308.785 31.8324C308.861 31.3949 309.009 31.0402 309.228 30.7685C309.446 30.4934 309.712 30.2779 310.023 30.1222C310.338 29.9631 310.676 29.8454 311.037 29.7692C311.402 29.6896 311.765 29.6283 312.126 29.5852C312.597 29.5256 312.98 29.4792 313.275 29.446C313.569 29.4129 313.792 29.3582 313.941 29.282C314.09 29.2057 314.181 29.0748 314.214 28.8892V28.8494C314.294 28.3622 314.229 27.9827 314.02 27.7109C313.811 27.4358 313.439 27.2983 312.902 27.2983C312.345 27.2983 311.879 27.4209 311.505 27.6662C311.13 27.9115 310.853 28.1733 310.674 28.4517L309.64 28.054C309.912 27.59 310.237 27.2287 310.615 26.9702C310.993 26.7083 311.389 26.526 311.803 26.4233C312.217 26.3172 312.617 26.2642 313.001 26.2642C313.246 26.2642 313.523 26.294 313.831 26.3537C314.14 26.41 314.428 26.5277 314.696 26.7067C314.968 26.8857 315.172 27.1558 315.308 27.517C315.447 27.8783 315.467 28.3622 315.368 28.9688L314.532 34H313.359L313.538 32.9659H313.478C313.372 33.1316 313.21 33.3089 312.991 33.4979C312.776 33.6868 312.502 33.8475 312.171 33.9801C311.843 34.1127 311.457 34.179 311.012 34.179ZM311.35 33.125C311.815 33.125 312.221 33.0339 312.569 32.8516C312.92 32.6693 313.202 32.4339 313.414 32.1456C313.629 31.8572 313.763 31.554 313.816 31.2358L313.995 30.1619C313.936 30.2216 313.818 30.2763 313.642 30.326C313.467 30.3724 313.268 30.4138 313.046 30.4503C312.827 30.4834 312.613 30.5133 312.404 30.5398C312.199 30.563 312.033 30.5829 311.907 30.5994C311.596 30.6392 311.299 30.7038 311.017 30.7933C310.739 30.8795 310.504 31.0104 310.311 31.1861C310.123 31.3584 310.005 31.5937 309.958 31.892C309.889 32.2997 309.987 32.608 310.252 32.8168C310.517 33.0223 310.883 33.125 311.35 33.125ZM323.077 28.0739L321.964 28.3722C321.924 28.1932 321.854 28.0208 321.755 27.8551C321.659 27.6861 321.51 27.5485 321.307 27.4425C321.108 27.3331 320.837 27.2784 320.492 27.2784C320.025 27.2784 319.619 27.3861 319.274 27.6016C318.929 27.8137 318.732 28.0838 318.682 28.4119C318.633 28.7003 318.699 28.9306 318.881 29.103C319.064 29.2753 319.368 29.4162 319.796 29.5256L320.89 29.804C321.546 29.973 322.013 30.2266 322.292 30.5646C322.573 30.8994 322.67 31.3352 322.58 31.8722C322.507 32.3097 322.317 32.7008 322.008 33.0455C321.7 33.3902 321.306 33.6619 320.825 33.8608C320.345 34.0597 319.809 34.1591 319.219 34.1591C318.434 34.1591 317.814 33.9901 317.36 33.652C316.906 33.3106 316.664 32.8168 316.634 32.1705L317.807 31.892C317.837 32.2997 317.983 32.608 318.245 32.8168C318.51 33.0223 318.881 33.125 319.358 33.125C319.905 33.125 320.361 33.009 320.726 32.777C321.09 32.5417 321.297 32.2599 321.347 31.9318C321.397 31.6634 321.344 31.4396 321.188 31.2607C321.036 31.0817 320.77 30.9474 320.393 30.858L319.18 30.5597C318.503 30.3906 318.029 30.1321 317.758 29.7841C317.489 29.4361 317.4 28.9986 317.489 28.4716C317.562 28.0407 317.748 27.6596 318.046 27.3281C318.348 26.9967 318.725 26.7365 319.18 26.5476C319.637 26.3587 320.134 26.2642 320.671 26.2642C321.427 26.2642 321.992 26.4299 322.366 26.7614C322.741 27.0895 322.978 27.527 323.077 28.0739Z" fill="#006CB5"/>
<path d="M174.311 49.1591C173.671 49.1591 173.134 48.9983 172.7 48.6768C172.266 48.352 171.96 47.8946 171.781 47.3047C171.605 46.7114 171.583 46.0104 171.716 45.2017C171.852 44.3996 172.105 43.7036 172.477 43.1136C172.851 42.5237 173.31 42.0679 173.854 41.7464C174.397 41.425 174.991 41.2642 175.634 41.2642C176.131 41.2642 176.51 41.3471 176.772 41.5128C177.037 41.6752 177.229 41.8608 177.349 42.0696C177.468 42.2751 177.559 42.4441 177.622 42.5767H177.722L178.348 38.8182H179.521L177.831 49H176.697L176.896 47.8267H176.757C176.648 47.9659 176.495 48.1416 176.3 48.3537C176.104 48.5625 175.846 48.7498 175.524 48.9155C175.206 49.0779 174.802 49.1591 174.311 49.1591ZM174.599 48.1051C175.07 48.1051 175.491 47.9825 175.862 47.7372C176.237 47.4886 176.548 47.1456 176.797 46.7081C177.045 46.2673 177.218 45.7585 177.314 45.1818C177.41 44.6117 177.407 44.1129 177.304 43.6854C177.201 43.2545 177.004 42.9197 176.712 42.6811C176.421 42.4392 176.035 42.3182 175.554 42.3182C175.06 42.3182 174.631 42.4458 174.266 42.701C173.902 42.9529 173.605 43.2959 173.376 43.7301C173.148 44.161 172.989 44.6449 172.899 45.1818C172.81 45.7254 172.808 46.2192 172.894 46.6634C172.98 47.1042 173.163 47.4555 173.441 47.7173C173.723 47.9759 174.109 48.1051 174.599 48.1051ZM183.285 49.1591C182.582 49.1591 181.994 48.9917 181.52 48.657C181.046 48.3222 180.711 47.8532 180.516 47.25C180.323 46.6468 180.292 45.9441 180.421 45.142C180.547 44.3598 180.797 43.6787 181.172 43.0987C181.55 42.5154 182.019 42.0646 182.579 41.7464C183.142 41.425 183.762 41.2642 184.438 41.2642C185.141 41.2642 185.728 41.4332 186.198 41.7713C186.672 42.1061 187.007 42.5767 187.202 43.1832C187.398 43.7865 187.431 44.4924 187.302 45.3011C187.176 46.0767 186.922 46.7545 186.541 47.3345C186.163 47.9112 185.694 48.3603 185.134 48.6818C184.577 49 183.961 49.1591 183.285 49.1591ZM183.305 48.1051C183.842 48.1051 184.307 47.9676 184.702 47.6925C185.099 47.4174 185.421 47.0545 185.666 46.6037C185.915 46.1529 186.082 45.6657 186.168 45.142C186.248 44.6449 186.245 44.1825 186.158 43.755C186.072 43.3241 185.888 42.9777 185.607 42.7159C185.325 42.4508 184.929 42.3182 184.418 42.3182C183.881 42.3182 183.412 42.4574 183.011 42.7358C182.614 43.0142 182.292 43.3804 182.047 43.8345C181.802 44.2886 181.638 44.7775 181.555 45.3011C181.475 45.7983 181.477 46.2607 181.56 46.6882C181.646 47.1125 181.83 47.4555 182.112 47.7173C182.397 47.9759 182.794 48.1051 183.305 48.1051ZM192.583 49L194.273 38.8182H200.418L200.239 39.9119H195.327L194.751 43.3523H199.344L199.165 44.446H194.572L193.995 47.9062H198.986L198.807 49H192.583ZM207.194 43.0739L206.081 43.3722C206.041 43.1932 205.971 43.0208 205.872 42.8551C205.776 42.6861 205.627 42.5485 205.425 42.4425C205.226 42.3331 204.954 42.2784 204.609 42.2784C204.142 42.2784 203.736 42.3861 203.391 42.6016C203.046 42.8137 202.849 43.0838 202.8 43.4119C202.75 43.7003 202.816 43.9306 202.998 44.103C203.181 44.2753 203.486 44.4162 203.913 44.5256L205.007 44.804C205.663 44.973 206.131 45.2266 206.409 45.5646C206.691 45.8994 206.787 46.3352 206.697 46.8722C206.624 47.3097 206.434 47.7008 206.126 48.0455C205.817 48.3902 205.423 48.6619 204.942 48.8608C204.462 49.0597 203.926 49.1591 203.336 49.1591C202.551 49.1591 201.931 48.9901 201.477 48.652C201.023 48.3106 200.781 47.8168 200.751 47.1705L201.925 46.892C201.954 47.2997 202.1 47.608 202.362 47.8168C202.627 48.0223 202.998 48.125 203.476 48.125C204.023 48.125 204.478 48.009 204.843 47.777C205.207 47.5417 205.415 47.2599 205.464 46.9318C205.514 46.6634 205.461 46.4396 205.305 46.2607C205.153 46.0817 204.888 45.9474 204.51 45.858L203.297 45.5597C202.621 45.3906 202.147 45.1321 201.875 44.7841C201.606 44.4361 201.517 43.9986 201.606 43.4716C201.679 43.0407 201.865 42.6596 202.163 42.3281C202.465 41.9967 202.843 41.7365 203.297 41.5476C203.754 41.3587 204.251 41.2642 204.788 41.2642C205.544 41.2642 206.109 41.4299 206.483 41.7614C206.858 42.0895 207.095 42.527 207.194 43.0739ZM212.699 41.3636L212.54 42.358H208.583L208.742 41.3636H212.699ZM210.194 39.5341H211.367L210.154 46.8125C210.101 47.1439 210.109 47.3925 210.179 47.5582C210.252 47.7206 210.361 47.83 210.507 47.8864C210.656 47.9394 210.817 47.9659 210.989 47.9659C211.118 47.9659 211.224 47.9593 211.307 47.946C211.39 47.9295 211.456 47.9162 211.506 47.9062L211.586 48.9602C211.496 48.9901 211.375 49.0199 211.223 49.0497C211.074 49.0829 210.89 49.0994 210.671 49.0994C210.339 49.0994 210.028 49.0282 209.736 48.8857C209.444 48.7431 209.221 48.526 209.065 48.2344C208.909 47.9427 208.868 47.5748 208.941 47.1307L210.194 39.5341ZM215.419 49.179C214.935 49.179 214.511 49.0878 214.146 48.9055C213.781 48.7199 213.511 48.4531 213.336 48.1051C213.16 47.7538 213.112 47.3295 213.191 46.8324C213.268 46.3949 213.415 46.0402 213.634 45.7685C213.853 45.4934 214.118 45.2779 214.429 45.1222C214.744 44.9631 215.082 44.8454 215.444 44.7692C215.808 44.6896 216.171 44.6283 216.532 44.5852C217.003 44.5256 217.386 44.4792 217.681 44.446C217.976 44.4129 218.198 44.3582 218.347 44.282C218.496 44.2057 218.587 44.0748 218.62 43.8892V43.8494C218.7 43.3622 218.635 42.9827 218.426 42.7109C218.218 42.4358 217.845 42.2983 217.308 42.2983C216.751 42.2983 216.285 42.4209 215.911 42.6662C215.536 42.9115 215.26 43.1733 215.081 43.4517L214.047 43.054C214.318 42.59 214.643 42.2287 215.021 41.9702C215.399 41.7083 215.795 41.526 216.209 41.4233C216.623 41.3172 217.023 41.2642 217.407 41.2642C217.653 41.2642 217.929 41.294 218.238 41.3537C218.546 41.41 218.834 41.5277 219.103 41.7067C219.374 41.8857 219.578 42.1558 219.714 42.517C219.853 42.8783 219.873 43.3622 219.774 43.9688L218.939 49H217.765L217.944 47.9659H217.885C217.779 48.1316 217.616 48.3089 217.397 48.4979C217.182 48.6868 216.908 48.8475 216.577 48.9801C216.249 49.1127 215.863 49.179 215.419 49.179ZM215.757 48.125C216.221 48.125 216.627 48.0339 216.975 47.8516C217.326 47.6693 217.608 47.4339 217.82 47.1456C218.035 46.8572 218.17 46.554 218.223 46.2358L218.402 45.1619C218.342 45.2216 218.224 45.2763 218.049 45.326C217.873 45.3724 217.674 45.4138 217.452 45.4503C217.233 45.4834 217.02 45.5133 216.811 45.5398C216.605 45.563 216.44 45.5829 216.314 45.5994C216.002 45.6392 215.705 45.7038 215.424 45.7933C215.145 45.8795 214.91 46.0104 214.718 46.1861C214.529 46.3584 214.411 46.5937 214.365 46.892C214.295 47.2997 214.393 47.608 214.658 47.8168C214.923 48.0223 215.289 48.125 215.757 48.125ZM223.954 49.1591C223.314 49.1591 222.777 48.9983 222.343 48.6768C221.909 48.352 221.602 47.8946 221.423 47.3047C221.247 46.7114 221.226 46.0104 221.358 45.2017C221.494 44.3996 221.748 43.7036 222.119 43.1136C222.494 42.5237 222.953 42.0679 223.496 41.7464C224.04 41.425 224.633 41.2642 225.276 41.2642C225.773 41.2642 226.153 41.3471 226.415 41.5128C226.68 41.6752 226.872 41.8608 226.991 42.0696C227.111 42.2751 227.202 42.4441 227.265 42.5767H227.364L227.991 38.8182H229.164L227.474 49H226.34L226.539 47.8267H226.4C226.29 47.9659 226.138 48.1416 225.942 48.3537C225.747 48.5625 225.488 48.7498 225.167 48.9155C224.849 49.0779 224.444 49.1591 223.954 49.1591ZM224.242 48.1051C224.713 48.1051 225.134 47.9825 225.505 47.7372C225.879 47.4886 226.191 47.1456 226.439 46.7081C226.688 46.2673 226.86 45.7585 226.956 45.1818C227.053 44.6117 227.049 44.1129 226.947 43.6854C226.844 43.2545 226.647 42.9197 226.355 42.6811C226.063 42.4392 225.677 42.3182 225.197 42.3182C224.703 42.3182 224.273 42.4458 223.909 42.701C223.544 42.9529 223.248 43.2959 223.019 43.7301C222.79 44.161 222.631 44.6449 222.542 45.1818C222.452 45.7254 222.451 46.2192 222.537 46.6634C222.623 47.1042 222.805 47.4555 223.084 47.7173C223.365 47.9759 223.751 48.1051 224.242 48.1051ZM232.927 49.1591C232.225 49.1591 231.636 48.9917 231.162 48.657C230.689 48.3222 230.354 47.8532 230.158 47.25C229.966 46.6468 229.934 45.9441 230.064 45.142C230.19 44.3598 230.44 43.6787 230.814 43.0987C231.192 42.5154 231.661 42.0646 232.221 41.7464C232.785 41.425 233.405 41.2642 234.081 41.2642C234.783 41.2642 235.37 41.4332 235.841 41.7713C236.315 42.1061 236.649 42.5767 236.845 43.1832C237.041 43.7865 237.074 44.4924 236.944 45.3011C236.818 46.0767 236.565 46.7545 236.184 47.3345C235.806 47.9112 235.337 48.3603 234.777 48.6818C234.22 49 233.604 49.1591 232.927 49.1591ZM232.947 48.1051C233.484 48.1051 233.95 47.9676 234.344 47.6925C234.742 47.4174 235.064 47.0545 235.309 46.6037C235.557 46.1529 235.725 45.6657 235.811 45.142C235.89 44.6449 235.887 44.1825 235.801 43.755C235.715 43.3241 235.531 42.9777 235.249 42.7159C234.967 42.4508 234.571 42.3182 234.061 42.3182C233.524 42.3182 233.055 42.4574 232.654 42.7358C232.256 43.0142 231.935 43.3804 231.689 43.8345C231.444 44.2886 231.28 44.7775 231.197 45.3011C231.118 45.7983 231.119 46.2607 231.202 46.6882C231.288 47.1125 231.472 47.4555 231.754 47.7173C232.039 47.9759 232.437 48.1051 232.947 48.1051ZM244.94 49.1591C244.3 49.1591 243.763 48.9983 243.329 48.6768C242.895 48.352 242.588 47.8946 242.409 47.3047C242.234 46.7114 242.212 46.0104 242.345 45.2017C242.481 44.3996 242.734 43.7036 243.105 43.1136C243.48 42.5237 243.939 42.0679 244.483 41.7464C245.026 41.425 245.619 41.2642 246.262 41.2642C246.76 41.2642 247.139 41.3471 247.401 41.5128C247.666 41.6752 247.858 41.8608 247.978 42.0696C248.097 42.2751 248.188 42.4441 248.251 42.5767H248.35L248.977 38.8182H250.15L248.46 49H247.326L247.525 47.8267H247.386C247.277 47.9659 247.124 48.1416 246.929 48.3537C246.733 48.5625 246.475 48.7498 246.153 48.9155C245.835 49.0779 245.431 49.1591 244.94 49.1591ZM245.228 48.1051C245.699 48.1051 246.12 47.9825 246.491 47.7372C246.866 47.4886 247.177 47.1456 247.426 46.7081C247.674 46.2673 247.847 45.7585 247.943 45.1818C248.039 44.6117 248.036 44.1129 247.933 43.6854C247.83 43.2545 247.633 42.9197 247.341 42.6811C247.05 42.4392 246.663 42.3182 246.183 42.3182C245.689 42.3182 245.26 42.4458 244.895 42.701C244.531 42.9529 244.234 43.2959 244.005 43.7301C243.777 44.161 243.618 44.6449 243.528 45.1818C243.439 45.7254 243.437 46.2192 243.523 46.6634C243.609 47.1042 243.792 47.4555 244.07 47.7173C244.352 47.9759 244.738 48.1051 245.228 48.1051ZM253.944 49.1591C253.211 49.1591 252.606 48.9967 252.129 48.6719C251.652 48.3438 251.319 47.8864 251.13 47.2997C250.941 46.7098 250.911 46.0237 251.04 45.2415C251.169 44.4593 251.426 43.7699 251.811 43.1733C252.195 42.5734 252.674 42.1061 253.248 41.7713C253.821 41.4332 254.451 41.2642 255.137 41.2642C255.534 41.2642 255.917 41.3305 256.285 41.4631C256.653 41.5956 256.971 41.8111 257.24 42.1094C257.508 42.4044 257.695 42.7955 257.801 43.2827C257.908 43.7699 257.901 44.3698 257.782 45.0824L257.702 45.5795H251.816L251.975 44.5653H256.668C256.744 44.1345 256.724 43.75 256.608 43.4119C256.496 43.0739 256.298 42.8071 256.017 42.6115C255.738 42.416 255.385 42.3182 254.958 42.3182C254.517 42.3182 254.106 42.4375 253.725 42.6761C253.344 42.9115 253.025 43.2098 252.77 43.571C252.515 43.929 252.356 44.2936 252.293 44.6648L252.154 45.5398C252.054 46.1728 252.069 46.6766 252.199 47.0511C252.331 47.4257 252.561 47.6958 252.89 47.8615C253.218 48.0239 253.629 48.1051 254.123 48.1051C254.437 48.1051 254.727 48.062 254.993 47.9759C255.258 47.8864 255.495 47.7538 255.703 47.5781C255.912 47.3991 256.088 47.1771 256.23 46.9119L257.304 47.2301C257.122 47.6146 256.865 47.9527 256.534 48.2443C256.206 48.5327 255.821 48.758 255.38 48.9205C254.943 49.0795 254.464 49.1591 253.944 49.1591ZM271.148 42C271.098 41.6652 271.012 41.3653 270.889 41.1001C270.77 40.8317 270.611 40.6046 270.412 40.419C270.213 40.2301 269.973 40.0859 269.691 39.9865C269.413 39.8838 269.089 39.8324 268.722 39.8324C268.118 39.8324 267.535 39.9882 266.972 40.2997C266.411 40.6113 265.926 41.0703 265.515 41.6768C265.107 42.2834 264.83 43.0275 264.685 43.9091C264.539 44.7907 264.554 45.5348 264.729 46.1413C264.908 46.7479 265.215 47.2069 265.649 47.5185C266.087 47.83 266.62 47.9858 267.25 47.9858C267.833 47.9858 268.377 47.8615 268.881 47.6129C269.384 47.361 269.807 47.0064 270.148 46.549C270.49 46.0883 270.71 45.5464 270.81 44.9233L271.168 45.0028H268.105L268.304 43.9091H272.182L271.983 45.0028C271.85 45.8447 271.555 46.5755 271.098 47.1953C270.641 47.8151 270.071 48.294 269.388 48.6321C268.705 48.9702 267.959 49.1392 267.151 49.1392C266.249 49.1392 265.493 48.9271 264.884 48.5028C264.274 48.0786 263.844 47.4754 263.596 46.6932C263.347 45.911 263.313 44.983 263.491 43.9091C263.621 43.1037 263.846 42.3795 264.168 41.7365C264.492 41.0902 264.89 40.54 265.361 40.0859C265.835 39.6319 266.363 39.2839 266.947 39.0419C267.533 38.8 268.152 38.679 268.801 38.679C269.338 38.679 269.825 38.7602 270.263 38.9226C270.704 39.0817 271.083 39.3087 271.401 39.6037C271.719 39.8954 271.966 40.245 272.142 40.6527C272.318 41.0571 272.411 41.5062 272.42 42H271.148ZM276.431 49.1591C275.729 49.1591 275.14 48.9917 274.666 48.657C274.192 48.3222 273.858 47.8532 273.662 47.25C273.47 46.6468 273.438 45.9441 273.568 45.142C273.694 44.3598 273.944 43.6787 274.318 43.0987C274.696 42.5154 275.165 42.0646 275.725 41.7464C276.289 41.425 276.909 41.2642 277.585 41.2642C278.287 41.2642 278.874 41.4332 279.345 41.7713C279.819 42.1061 280.153 42.5767 280.349 43.1832C280.544 43.7865 280.578 44.4924 280.448 45.3011C280.322 46.0767 280.069 46.7545 279.688 47.3345C279.31 47.9112 278.841 48.3603 278.281 48.6818C277.724 49 277.107 49.1591 276.431 49.1591ZM276.451 48.1051C276.988 48.1051 277.454 47.9676 277.848 47.6925C278.246 47.4174 278.567 47.0545 278.813 46.6037C279.061 46.1529 279.229 45.6657 279.315 45.142C279.394 44.6449 279.391 44.1825 279.305 43.755C279.219 43.3241 279.035 42.9777 278.753 42.7159C278.471 42.4508 278.075 42.3182 277.565 42.3182C277.028 42.3182 276.559 42.4574 276.158 42.7358C275.76 43.0142 275.439 43.3804 275.193 43.8345C274.948 44.2886 274.784 44.7775 274.701 45.3011C274.622 45.7983 274.623 46.2607 274.706 46.6882C274.792 47.1125 274.976 47.4555 275.258 47.7173C275.543 47.9759 275.941 48.1051 276.451 48.1051ZM281.633 49L282.906 41.3636H284.079L282.806 49H281.633ZM283.85 40.071C283.621 40.071 283.424 39.9931 283.259 39.8374C283.096 39.6816 283.015 39.4943 283.015 39.2756C283.015 39.0568 283.096 38.8696 283.259 38.7138C283.424 38.558 283.621 38.4801 283.85 38.4801C284.079 38.4801 284.274 38.558 284.437 38.7138C284.603 38.8696 284.685 39.0568 284.685 39.2756C284.685 39.4943 284.603 39.6816 284.437 39.8374C284.274 39.9931 284.079 40.071 283.85 40.071ZM287.182 49.179C286.698 49.179 286.274 49.0878 285.91 48.9055C285.545 48.7199 285.275 48.4531 285.099 48.1051C284.924 47.7538 284.876 47.3295 284.955 46.8324C285.031 46.3949 285.179 46.0402 285.398 45.7685C285.616 45.4934 285.881 45.2779 286.193 45.1222C286.508 44.9631 286.846 44.8454 287.207 44.7692C287.572 44.6896 287.935 44.6283 288.296 44.5852C288.767 44.5256 289.149 44.4792 289.444 44.446C289.739 44.4129 289.961 44.3582 290.111 44.282C290.26 44.2057 290.351 44.0748 290.384 43.8892V43.8494C290.464 43.3622 290.399 42.9827 290.19 42.7109C289.981 42.4358 289.608 42.2983 289.072 42.2983C288.515 42.2983 288.049 42.4209 287.675 42.6662C287.3 42.9115 287.023 43.1733 286.844 43.4517L285.81 43.054C286.082 42.59 286.407 42.2287 286.785 41.9702C287.162 41.7083 287.559 41.526 287.973 41.4233C288.387 41.3172 288.787 41.2642 289.171 41.2642C289.416 41.2642 289.693 41.294 290.001 41.3537C290.309 41.41 290.598 41.5277 290.866 41.7067C291.138 41.8857 291.342 42.1558 291.478 42.517C291.617 42.8783 291.637 43.3622 291.537 43.9688L290.702 49H289.529L289.708 47.9659H289.648C289.542 48.1316 289.38 48.3089 289.161 48.4979C288.946 48.6868 288.672 48.8475 288.341 48.9801C288.013 49.1127 287.626 49.179 287.182 49.179ZM287.52 48.125C287.984 48.125 288.39 48.0339 288.738 47.8516C289.09 47.6693 289.372 47.4339 289.584 47.1456C289.799 46.8572 289.933 46.554 289.986 46.2358L290.165 45.1619C290.106 45.2216 289.988 45.2763 289.812 45.326C289.637 45.3724 289.438 45.4138 289.216 45.4503C288.997 45.4834 288.783 45.5133 288.574 45.5398C288.369 45.563 288.203 45.5829 288.077 45.5994C287.766 45.6392 287.469 45.7038 287.187 45.7933C286.909 45.8795 286.674 46.0104 286.481 46.1861C286.292 46.3584 286.175 46.5937 286.128 46.892C286.059 47.2997 286.157 47.608 286.422 47.8168C286.687 48.0223 287.053 48.125 287.52 48.125ZM288.853 40.3295L290.444 38.0227H291.816L289.887 40.3295H288.853ZM299.247 43.0739L298.134 43.3722C298.094 43.1932 298.024 43.0208 297.925 42.8551C297.829 42.6861 297.679 42.5485 297.477 42.4425C297.278 42.3331 297.007 42.2784 296.662 42.2784C296.195 42.2784 295.789 42.3861 295.444 42.6016C295.099 42.8137 294.902 43.0838 294.852 43.4119C294.803 43.7003 294.869 43.9306 295.051 44.103C295.233 44.2753 295.538 44.4162 295.966 44.5256L297.06 44.804C297.716 44.973 298.183 45.2266 298.462 45.5646C298.743 45.8994 298.839 46.3352 298.75 46.8722C298.677 47.3097 298.487 47.7008 298.178 48.0455C297.87 48.3902 297.476 48.6619 296.995 48.8608C296.514 49.0597 295.979 49.1591 295.389 49.1591C294.604 49.1591 293.984 48.9901 293.53 48.652C293.076 48.3106 292.834 47.8168 292.804 47.1705L293.977 46.892C294.007 47.2997 294.153 47.608 294.415 47.8168C294.68 48.0223 295.051 48.125 295.528 48.125C296.075 48.125 296.531 48.009 296.896 47.777C297.26 47.5417 297.467 47.2599 297.517 46.9318C297.567 46.6634 297.514 46.4396 297.358 46.2607C297.205 46.0817 296.94 45.9474 296.562 45.858L295.349 45.5597C294.673 45.3906 294.199 45.1321 293.928 44.7841C293.659 44.4361 293.57 43.9986 293.659 43.4716C293.732 43.0407 293.918 42.6596 294.216 42.3281C294.518 41.9967 294.895 41.7365 295.349 41.5476C295.807 41.3587 296.304 41.2642 296.841 41.2642C297.597 41.2642 298.162 41.4299 298.536 41.7614C298.911 42.0895 299.148 42.527 299.247 43.0739Z" fill="#006CB5"/>
</svg>
